<svg width="19" height="15" viewBox="0 0 19 15" fill="none" xmlns="http://www.w3.org/2000/svg">
<path d="M17.1923 15H12.2307C12.2307 14.75 12.2222 14.5 12.2053 14.25C12.1883 14 12.1628 13.75 12.1288 13.5H17.1923C17.282 13.5 17.3557 13.4711 17.4134 13.4134C17.4711 13.3557 17.5 13.282 17.5 13.1923V1.8077C17.5 1.71795 17.4711 1.64423 17.4134 1.58652C17.3557 1.52882 17.282 1.49998 17.1923 1.49998H1.8077C1.71795 1.49998 1.64423 1.52882 1.58653 1.58652C1.52883 1.64423 1.49998 1.71795 1.49998 1.8077V2.87115C1.24998 2.83717 0.999984 2.81168 0.75 2.7947C0.5 2.77772 0.25 2.76923 0 2.76923V1.8077C0 1.31058 0.177008 0.885026 0.531025 0.531026C0.885025 0.177009 1.31058 0 1.8077 0H17.1923C17.6894 0 18.1149 0.177009 18.4689 0.531026C18.8229 0.885026 19 1.31058 19 1.8077V13.1923C19 13.6894 18.8229 14.1149 18.4689 14.4689C18.1149 14.8229 17.6894 15 17.1923 15ZM0 15V12.5385C0.679483 12.5385 1.25961 12.7788 1.74038 13.2596C2.22113 13.7403 2.4615 14.3205 2.4615 15H0ZM4.65382 15C4.65382 13.7128 4.19998 12.6185 3.2923 11.7173C2.38462 10.816 1.28718 10.3589 0 10.3461V8.84615C1.71282 8.84615 3.16665 9.44322 4.3615 10.6374C5.55637 11.8315 6.1538 13.2857 6.1538 15H4.65382ZM8.53845 15C8.53845 13.8153 8.31377 12.7057 7.8644 11.6711C7.41505 10.6365 6.80544 9.73426 6.03558 8.96438C5.26569 8.19451 4.36346 7.5849 3.32888 7.13555C2.29428 6.68618 1.18465 6.4615 0 6.4615V4.96155C1.38847 4.96155 2.69058 5.2237 3.90635 5.748C5.12212 6.2723 6.18592 6.99037 7.09775 7.9022C8.00958 8.81403 8.72765 9.87783 9.25195 11.0936C9.77625 12.3094 10.0384 13.6115 10.0384 15H8.53845Z" fill="#37474F"/>
</svg>
