<svg width="18" height="20" viewBox="0 0 18 20" fill="none" xmlns="http://www.w3.org/2000/svg">
<path d="M3 0.5H8.97656L9.21777 0.583008L9.33105 0.62207L9.35059 0.619141C9.3701 0.633301 9.38961 0.647493 9.40723 0.664062L15.3857 6.64258C15.4056 6.66368 15.4241 6.68617 15.4404 6.70996V6.75195L15.4658 6.8291C15.4818 6.87665 15.4931 6.92593 15.5 6.97559V9C15.5 9.13261 15.4473 9.25975 15.3535 9.35352C15.2597 9.44728 15.1326 9.5 15 9.5C14.8674 9.5 14.7403 9.44728 14.6465 9.35352C14.5527 9.25975 14.5 9.13261 14.5 9V7.5H11C10.337 7.5 9.70126 7.23642 9.23242 6.76758C8.76358 6.29874 8.5 5.66304 8.5 5V1.5H3C2.60217 1.5 2.22076 1.65815 1.93945 1.93945C1.65815 2.22076 1.5 2.60217 1.5 3V17C1.5 17.3978 1.65815 17.7792 1.93945 18.0605C2.22076 18.3419 2.60218 18.5 3 18.5H7C7.13261 18.5 7.25975 18.5527 7.35352 18.6465C7.44728 18.7403 7.5 18.8674 7.5 19C7.5 19.1326 7.44728 19.2597 7.35352 19.3535C7.25975 19.4473 7.13261 19.5 7 19.5H3C2.33696 19.5 1.70126 19.2364 1.23242 18.7676C0.763581 18.2987 0.5 17.663 0.5 17V3C0.5 2.33696 0.763581 1.70126 1.23242 1.23242C1.70126 0.763581 2.33696 0.5 3 0.5ZM11.5 16.793V18.5H13.207L16.2871 15.4199L14.5801 13.7129L11.5 16.793ZM5 14.5H7C7.13261 14.5 7.25975 14.5527 7.35352 14.6465C7.44728 14.7403 7.5 14.8674 7.5 15C7.5 15.1326 7.44728 15.2597 7.35352 15.3535C7.25975 15.4473 7.13261 15.5 7 15.5H5C4.86739 15.5 4.74025 15.4473 4.64648 15.3535C4.55272 15.2597 4.5 15.1326 4.5 15C4.5 14.8674 4.55272 14.7403 4.64648 14.6465C4.74025 14.5527 4.86739 14.5 5 14.5ZM5 10.5H11C11.1326 10.5 11.2597 10.5527 11.3535 10.6465C11.4473 10.7403 11.5 10.8674 11.5 11C11.5 11.1326 11.4473 11.2597 11.3535 11.3535C11.2597 11.4473 11.1326 11.5 11 11.5H5C4.86739 11.5 4.74025 11.4473 4.64648 11.3535C4.55272 11.2597 4.5 11.1326 4.5 11C4.5 10.8674 4.55272 10.7403 4.64648 10.6465C4.74025 10.5527 4.86739 10.5 5 10.5ZM5 6.5H6C6.13261 6.5 6.25975 6.55272 6.35352 6.64648C6.44728 6.74025 6.5 6.86739 6.5 7C6.5 7.13261 6.44728 7.25975 6.35352 7.35352C6.25975 7.44728 6.13261 7.5 6 7.5H5C4.86739 7.5 4.74025 7.44728 4.64648 7.35352C4.55272 7.25975 4.5 7.13261 4.5 7C4.5 6.86739 4.55272 6.74025 4.64648 6.64648C4.74025 6.55272 4.86739 6.5 5 6.5ZM9.5 5C9.5 5.39782 9.65815 5.77924 9.93945 6.06055C10.2208 6.34185 10.6022 6.5 11 6.5H13.7969L9.5 2.20312V5ZM10.5 16.5771C10.4996 16.5113 10.5122 16.4457 10.5371 16.3848C10.5617 16.3246 10.597 16.269 10.6426 16.2227L10.6436 16.2236L14.2246 12.6426C14.2711 12.5957 14.3268 12.5576 14.3877 12.5322C14.4486 12.5069 14.5141 12.4941 14.5801 12.4941C14.6461 12.4942 14.7116 12.5069 14.7725 12.5322C14.8334 12.5576 14.8881 12.5957 14.9346 12.6426L14.9365 12.6436L17.3564 15.0635L17.3574 15.0654C17.4043 15.1119 17.4424 15.1666 17.4678 15.2275C17.4931 15.2884 17.5058 15.3539 17.5059 15.4199C17.5059 15.4859 17.4931 15.5514 17.4678 15.6123C17.4424 15.6732 17.4043 15.7289 17.3574 15.7754L13.7764 19.3564C13.73 19.402 13.6754 19.4383 13.6152 19.4629C13.5543 19.4878 13.4887 19.5004 13.4229 19.5H11C10.8674 19.5 10.7403 19.4473 10.6465 19.3535C10.5527 19.2597 10.5 19.1326 10.5 19V16.5771Z" fill="#41328F" stroke="#41328F"/>
</svg>
