<svg width="24" height="24" viewBox="0 0 24 24" fill="none" xmlns="http://www.w3.org/2000/svg">
<path d="M5 4.5H19C19.663 4.5 20.2987 4.76358 20.7676 5.23242C21.2364 5.70126 21.5 6.33696 21.5 7V17C21.5 17.663 21.2364 18.2987 20.7676 18.7676C20.2987 19.2364 19.663 19.5 19 19.5H5C4.33696 19.5 3.70126 19.2364 3.23242 18.7676C2.76358 18.2987 2.5 17.663 2.5 17V7C2.5 6.33696 2.76358 5.70126 3.23242 5.23242C3.70126 4.76358 4.33696 4.5 5 4.5ZM13.7666 12.9365C13.2979 13.4046 12.6624 13.667 12 13.667C11.4205 13.667 10.8616 13.4663 10.417 13.1025L10.2334 12.9365L3.5 6.20312V17C3.5 17.3978 3.65815 17.7792 3.93945 18.0605C4.22076 18.3419 4.60218 18.5 5 18.5H19C19.3978 18.5 19.7792 18.3419 20.0605 18.0605C20.3419 17.7792 20.5 17.3978 20.5 17V6.20312L13.7666 12.9365ZM10.9346 12.2314V12.2324C11.074 12.373 11.2401 12.4844 11.4229 12.5605C11.6056 12.6367 11.802 12.6758 12 12.6758C12.198 12.6758 12.3944 12.6367 12.5771 12.5605C12.7599 12.4844 12.9251 12.372 13.0645 12.2314L18.9434 6.35352L19.7969 5.5H4.20312L10.9346 12.2314Z" fill="#41328F" stroke="#41328F"/>
</svg>
