<svg width="25" height="25" viewBox="0 0 25 25" fill="none" xmlns="http://www.w3.org/2000/svg">
<path d="M15.448 11.7604L11.0313 7.34377C10.9345 7.24613 10.8193 7.16864 10.6924 7.11576C10.5654 7.06287 10.4293 7.03564 10.2918 7.03564C10.1542 7.03564 10.0181 7.06287 9.89116 7.11576C9.76422 7.16864 9.64901 7.24613 9.55218 7.34377C9.35816 7.53894 9.24927 7.80295 9.24927 8.07814C9.24927 8.35334 9.35816 8.61735 9.55218 8.81252L13.2397 12.5L9.55218 16.1875C9.35816 16.3827 9.24927 16.6467 9.24927 16.9219C9.24927 17.1971 9.35816 17.4611 9.55218 17.6563C9.64951 17.7528 9.76494 17.8292 9.89186 17.881C10.0188 17.9329 10.1547 17.9591 10.2918 17.9584C10.4288 17.9591 10.5647 17.9329 10.6917 17.881C10.8186 17.8292 10.934 17.7528 11.0313 17.6563L15.448 13.2396C15.5456 13.1428 15.6231 13.0276 15.676 12.9006C15.7289 12.7737 15.7561 12.6375 15.7561 12.5C15.7561 12.3625 15.7289 12.2264 15.676 12.0994C15.6231 11.9725 15.5456 11.8573 15.448 11.7604Z" fill="#41328F"/>
</svg>
