<svg width="6" height="4" viewBox="0 0 6 4" fill="none" xmlns="http://www.w3.org/2000/svg">
<path d="M2.52268 3.57L0.124675 0.829C-0.158325 0.5065 0.0716754 1.83853e-07 0.501175 1.83853e-07H5.29718C5.3933 -8.22297e-05 5.48741 0.0275439 5.56823 0.0795705C5.64906 0.131597 5.71317 0.205819 5.7529 0.293347C5.79263 0.380875 5.80628 0.477999 5.79223 0.573089C5.77818 0.668178 5.73702 0.757203 5.67368 0.8295L3.27568 3.5695C3.22874 3.6232 3.17087 3.66625 3.10593 3.69574C3.04099 3.72523 2.9705 3.74049 2.89918 3.74049C2.82785 3.74049 2.75736 3.72523 2.69242 3.69574C2.62748 3.66625 2.56961 3.6232 2.52268 3.5695V3.57Z" fill="#9E9E9E"/>
</svg>
