<svg width="19" height="18" viewBox="0 0 19 18" fill="none" xmlns="http://www.w3.org/2000/svg">
<path d="M1.8077 17.4999C1.30257 17.4999 0.875 17.3249 0.525 16.9749C0.175 16.6249 0 16.1973 0 15.6922V5.30765C0 4.80252 0.175 4.37495 0.525 4.02495C0.875 3.67495 1.30257 3.49995 1.8077 3.49995H6V1.80768C6 1.30256 6.175 0.875 6.525 0.525C6.875 0.175 7.30257 0 7.8077 0H11.1923C11.6974 0 12.125 0.175 12.475 0.525C12.825 0.875 13 1.30256 13 1.80768V3.49995H17.1923C17.6974 3.49995 18.125 3.67495 18.475 4.02495C18.825 4.37495 19 4.80252 19 5.30765V15.6922C19 16.1973 18.825 16.6249 18.475 16.9749C18.125 17.3249 17.6974 17.4999 17.1923 17.4999H1.8077ZM1.8077 15.9999H17.1923C17.2692 15.9999 17.3397 15.9679 17.4038 15.9038C17.4679 15.8397 17.5 15.7691 17.5 15.6922V5.30765C17.5 5.23072 17.4679 5.16019 17.4038 5.09608C17.3397 5.03198 17.2692 4.99993 17.1923 4.99993H1.8077C1.73077 4.99993 1.66024 5.03198 1.59613 5.09608C1.53202 5.16019 1.49998 5.23072 1.49998 5.30765V15.6922C1.49998 15.7691 1.53202 15.8397 1.59613 15.9038C1.66024 15.9679 1.73077 15.9999 1.8077 15.9999ZM7.49998 3.49995H11.5V1.80768C11.5 1.73074 11.4679 1.66023 11.4038 1.59613C11.3397 1.53201 11.2692 1.49995 11.1923 1.49995H7.8077C7.73077 1.49995 7.66024 1.53201 7.59613 1.59613C7.53203 1.66023 7.49998 1.73074 7.49998 1.80768V3.49995Z" fill="#37474F"/>
</svg>
