<svg width="52" height="62" viewBox="0 0 52 62" fill="none" xmlns="http://www.w3.org/2000/svg">
<g opacity="0.3">
<path opacity="0.3" d="M36.0814 12.7203C34.6688 12.7196 33.3143 12.1582 32.3155 11.1594C31.3167 10.1606 30.7552 8.80605 30.7545 7.3935V0H6.95178C6.03864 -6.30488e-08 5.13446 0.179887 4.29087 0.529406C3.44728 0.878926 2.68075 1.39122 2.03519 2.03702C1.38963 2.68283 0.877665 3.44949 0.52846 4.29321C0.179255 5.13694 -0.000338848 6.04121 4.79953e-07 6.95434V48.8586C-0.000338848 49.7717 0.179255 50.6759 0.52846 51.5197C0.877665 52.3634 1.38963 53.13 2.03519 53.7758C2.68075 54.4216 3.44728 54.9339 4.29087 55.2835C5.13446 55.633 6.03864 55.8129 6.95178 55.8129H35.5233C36.4365 55.8129 37.3407 55.633 38.1842 55.2835C39.0278 54.9339 39.7943 54.4216 40.4399 53.7758C41.0854 53.13 41.5975 52.3634 41.9467 51.5197C42.2959 50.6759 42.4755 49.7717 42.4751 48.8586V12.7229L36.0814 12.7203Z" fill="#00C650"/>
</g>
<path d="M42.4764 12.7203H36.0827C34.6702 12.7196 33.3157 12.1582 32.3168 11.1594C31.318 10.1606 30.7565 8.80605 30.7559 7.3935V0L42.4764 12.7203Z" fill="#00C650"/>
<path d="M47.5191 44.0723H15.2172C12.9259 44.0723 11.0684 45.9298 11.0684 48.2211V57.8518C11.0684 60.1431 12.9259 62.0006 15.2172 62.0006H47.5191C49.8105 62.0006 51.6679 60.1431 51.6679 57.8518V48.2211C51.6679 45.9298 49.8105 44.0723 47.5191 44.0723Z" fill="#00C650"/>
<path d="M21.7557 55.1201V57.0008H19.8105V55.1201H21.7557Z" fill="white"/>
<path d="M27.531 49.2334V54.5396C27.531 55.3542 27.3097 55.9802 26.8671 56.4177C26.62 56.6455 26.3296 56.8212 26.0132 56.9344C25.6967 57.0476 25.3607 57.0959 25.0252 57.0764C24.6577 57.0961 24.29 57.0428 23.9432 56.9195C23.5965 56.7963 23.2776 56.6055 23.005 56.3582C22.5073 55.8777 22.2576 55.1889 22.2559 54.2916H24.1133C24.1133 55.0175 24.3897 55.3792 24.9373 55.3792C25.4152 55.3792 25.6529 55.1002 25.6529 54.5447V49.2386L27.531 49.2334Z" fill="white"/>
<path d="M30.6457 54.2761V57.0015H28.7676V49.2334H31.8107C32.7321 49.2334 33.4348 49.4616 33.9187 49.918C34.1636 50.158 34.3549 50.4471 34.48 50.7664C34.6052 51.0856 34.6613 51.4278 34.6446 51.7702C34.6517 52.2216 34.5404 52.667 34.3217 53.0619C34.0968 53.447 33.7622 53.7564 33.3607 53.9506C32.8771 54.1801 32.3459 54.2917 31.8107 54.2761H30.6457ZM32.7329 51.7702C32.7329 51.0814 32.3558 50.7369 31.6015 50.7369H30.6457V52.7597H31.6015C32.3558 52.7665 32.7329 52.4367 32.7329 51.7702Z" fill="white"/>
<path d="M41.6136 49.858C42.2391 50.3283 42.6599 51.021 42.7891 51.7929H40.7999C40.6653 51.5225 40.453 51.2985 40.1902 51.1496C39.8944 50.9739 39.5552 50.8844 39.2111 50.8913C38.944 50.8804 38.6778 50.9284 38.4313 51.032C38.1849 51.1356 37.9643 51.2922 37.7851 51.4906C37.4063 51.9425 37.2133 52.5215 37.2453 53.1104C37.2453 53.8492 37.4338 54.4167 37.811 54.8128C38.0231 55.0185 38.2758 55.1775 38.5529 55.2799C38.8301 55.3822 39.1256 55.4255 39.4204 55.4069C39.8419 55.4146 40.2545 55.285 40.5958 55.0375C40.9444 54.7773 41.1962 54.4082 41.3114 53.9887H38.9373V52.6376H42.882V54.495C42.7313 54.9574 42.4927 55.3864 42.1794 55.7583C41.84 56.1591 41.4178 56.4816 40.942 56.7038C40.4039 56.9524 39.8167 57.076 39.2241 57.0655C38.5033 57.0844 37.7903 56.9123 37.1574 56.5669C36.5784 56.2412 36.1071 55.7537 35.8012 55.1641C35.4724 54.5257 35.3082 53.8154 35.3232 53.0975C35.3103 52.3839 35.4745 51.6782 35.8012 51.0437C36.1065 50.4554 36.5758 49.9682 37.1522 49.641C37.7759 49.2982 38.479 49.1262 39.1904 49.1424C40.0553 49.1047 40.908 49.3565 41.6136 49.858Z" fill="white"/>
<path d="M26.9443 37.8228H15.5337C14.4167 37.8214 13.3458 37.377 12.5559 36.5872C11.766 35.7973 11.3217 34.7264 11.3203 33.6093V22.1988C11.3217 21.0817 11.766 20.0108 12.5559 19.2209C13.3458 18.4311 14.4167 17.9867 15.5337 17.9854H26.9443C28.0611 17.9867 29.1317 18.4312 29.9212 19.2211C30.7106 20.0111 31.1544 21.082 31.1551 22.1988V33.6093C31.1544 34.7261 30.7106 35.7971 29.9212 36.587C29.1317 37.377 28.0611 37.8214 26.9443 37.8228ZM15.5337 19.8479C14.9105 19.8486 14.3129 20.0965 13.8722 20.5372C13.4315 20.978 13.1836 21.5755 13.1829 22.1988V33.6093C13.1836 34.2326 13.4315 34.8302 13.8722 35.2709C14.3129 35.7116 14.9105 35.9595 15.5337 35.9602H26.9443C27.5673 35.9595 28.1646 35.7115 28.6049 35.2707C29.0452 34.8299 29.2925 34.2324 29.2925 33.6093V22.1988C29.2925 21.5757 29.0452 20.9782 28.6049 20.5374C28.1646 20.0966 27.5673 19.8486 26.9443 19.8479H15.5337Z" fill="#00C650"/>
<path d="M30.2261 31.4387V33.6087C30.2254 34.4786 29.8795 35.3127 29.2644 35.9278C28.6493 36.543 27.8152 36.8889 26.9453 36.8896H15.5347C14.6646 36.8896 13.8301 36.5439 13.2148 35.9286C12.5996 35.3133 12.2539 34.4788 12.2539 33.6087V29.9662C14.0803 29.5735 16.8625 29.4495 20.2389 30.798L22.3315 28.8037L23.7574 32.4204C23.7574 32.4204 24.1397 31.0899 25.3746 31.2785C26.6094 31.4671 28.6089 32.1362 29.464 31.5653C29.6944 31.4324 29.9651 31.3874 30.2261 31.4387Z" fill="#00C650"/>
<path d="M26.2293 24.529C26.9299 24.529 27.4978 23.9611 27.4978 23.2606C27.4978 22.5601 26.9299 21.9922 26.2293 21.9922C25.5288 21.9922 24.9609 22.5601 24.9609 23.2606C24.9609 23.9611 25.5288 24.529 26.2293 24.529Z" fill="#00C650"/>
</svg>
