<svg width="62" height="75" viewBox="0 0 62 75" fill="none" xmlns="http://www.w3.org/2000/svg">
<g opacity="0.3">
<path opacity="0.3" d="M43.2994 15.2679C41.6045 15.2663 39.9795 14.5922 38.7811 13.3938C37.5826 12.1953 36.9086 10.5704 36.9069 8.8755V0H8.34242C6.12987 0 4.00796 0.878945 2.44345 2.44343C0.878937 4.00792 0 6.12977 0 8.34229V58.6318C0.00328562 60.8422 0.883664 62.9609 2.44782 64.5227C4.01197 66.0845 6.13202 66.9618 8.34242 66.9618H42.6329C44.8433 66.9618 46.9633 66.0845 48.5275 64.5227C50.0916 62.9609 50.972 60.8422 50.9753 58.6318V15.2679H43.2994Z" fill="#FF3E4C"/>
</g>
<path d="M50.9746 15.2679H43.2987C41.6038 15.2663 39.9788 14.5922 38.7804 13.3938C37.5819 12.1953 36.9079 10.5704 36.9062 8.8755V0L50.9746 15.2679Z" fill="#FF3E4C"/>
<path d="M40.4885 46.7614H8.48286C8.17453 46.7614 7.87883 46.6389 7.66081 46.4209C7.44279 46.2029 7.32031 45.9072 7.32031 45.5989C7.32113 45.2911 7.44397 44.9962 7.6619 44.7788C7.87984 44.5615 8.17507 44.4395 8.48286 44.4395H40.4885C40.796 44.4395 41.0909 44.5615 41.3084 44.779C41.5258 44.9964 41.648 45.2914 41.648 45.5989C41.6484 45.7514 41.6187 45.9025 41.5606 46.0435C41.5025 46.1846 41.4172 46.3127 41.3095 46.4207C41.2018 46.5287 41.0738 46.6144 40.9329 46.6729C40.7921 46.7313 40.641 46.7614 40.4885 46.7614Z" fill="#FF3E4C"/>
<path d="M40.4885 33.6667H8.48286C8.17507 33.6667 7.87984 33.5446 7.6619 33.3272C7.44397 33.1099 7.32113 32.815 7.32031 32.5073C7.32031 32.1989 7.44279 31.9032 7.66081 31.6852C7.87883 31.4671 8.17453 31.3447 8.48286 31.3447H40.4885C40.641 31.3447 40.7921 31.3748 40.9329 31.4333C41.0738 31.4917 41.2018 31.5774 41.3095 31.6854C41.4172 31.7934 41.5025 31.9216 41.5606 32.0626C41.6187 32.2036 41.6484 32.3547 41.648 32.5073C41.648 32.8148 41.5258 33.1096 41.3084 33.3271C41.0909 33.5445 40.796 33.6667 40.4885 33.6667Z" fill="#FF3E4C"/>
<path d="M40.4885 40.2145H8.48286C8.17453 40.2145 7.87883 40.092 7.66081 39.874C7.44279 39.656 7.32031 39.3603 7.32031 39.052C7.32113 38.7442 7.44397 38.4493 7.6619 38.232C7.87984 38.0146 8.17507 37.8926 8.48286 37.8926H40.4885C40.796 37.8926 41.0909 38.0147 41.3084 38.2322C41.5258 38.4496 41.648 38.7445 41.648 39.052C41.6484 39.2045 41.6187 39.3556 41.5606 39.4967C41.5025 39.6377 41.4172 39.7659 41.3095 39.8739C41.2018 39.9819 41.0738 40.0675 40.9329 40.126C40.7921 40.1844 40.641 40.2145 40.4885 40.2145Z" fill="#FF3E4C"/>
<path d="M27.8648 27.1198H8.48286C8.17507 27.1198 7.87984 26.9978 7.6619 26.7804C7.44397 26.5631 7.32113 26.2682 7.32031 25.9604C7.32031 25.6521 7.44279 25.3564 7.66081 25.1384C7.87883 24.9203 8.17453 24.7979 8.48286 24.7979H27.8648C28.1726 24.7987 28.4675 24.9215 28.6849 25.1394C28.9022 25.3573 29.0243 25.6526 29.0243 25.9604C29.0235 26.2676 28.901 26.562 28.6838 26.7793C28.4665 26.9966 28.1721 27.119 27.8648 27.1198Z" fill="#FF3E4C"/>
<path d="M27.8648 20.572H8.48286C8.17507 20.572 7.87984 20.4499 7.6619 20.2325C7.44397 20.0152 7.32113 19.7203 7.32031 19.4125C7.32031 19.1042 7.44279 18.8085 7.66081 18.5904C7.87883 18.3724 8.17453 18.25 8.48286 18.25H27.8648C28.1726 18.2508 28.4675 18.3736 28.6849 18.5916C28.9022 18.8095 29.0243 19.1047 29.0243 19.4125C29.0235 19.7198 28.901 20.0142 28.6838 20.2314C28.4665 20.4487 28.1721 20.5711 27.8648 20.572Z" fill="#FF3E4C"/>
<path d="M57.022 52.8906H18.2581C15.5084 52.8906 13.2793 55.1197 13.2793 57.8694V69.4265C13.2793 72.1761 15.5084 74.4052 18.2581 74.4052H57.022C59.7717 74.4052 62.0008 72.1761 62.0008 69.4265V57.8694C62.0008 55.1197 59.7717 52.8906 57.022 52.8906Z" fill="#FF3E4C"/>
<path d="M25.9954 66.1494V68.4032H23.6641V66.1494H25.9954Z" fill="white"/>
<path d="M29.4257 65.1334V68.4039H27.1719V59.082H30.8238C31.9306 59.082 32.7769 59.3579 33.3566 59.9066C33.65 60.1949 33.879 60.542 34.0286 60.9251C34.1782 61.3082 34.245 61.7186 34.2247 62.1294C34.2359 62.6713 34.1022 63.2065 33.8371 63.6794C33.5665 64.1417 33.1653 64.5139 32.6839 64.749C32.1032 65.0234 31.4658 65.1562 30.8238 65.1365L29.4257 65.1334ZM31.9306 62.1294C31.9306 61.3027 31.478 60.8893 30.5727 60.8893H29.4257V63.3167H30.5727C31.478 63.325 31.9306 62.9292 31.9306 62.1294Z" fill="white"/>
<path d="M43.1328 66.1561C42.7446 66.861 42.1582 67.4366 41.4463 67.8116C40.6452 68.2217 39.7543 68.4252 38.8546 68.4037H35.3359V59.0818H38.8546C39.755 59.0592 40.6471 59.2582 41.4525 59.6615C42.1625 60.0284 42.7474 60.5982 43.1328 61.2983C43.5361 62.0416 43.7391 62.8771 43.7218 63.7226C43.7386 64.571 43.5357 65.4093 43.1328 66.1561ZM40.7085 65.688C40.9605 65.4294 41.1557 65.121 41.2817 64.7825C41.4077 64.4441 41.4616 64.0831 41.4401 63.7226C41.4618 63.3626 41.4079 63.002 41.2819 62.664C41.1559 62.3261 40.9605 62.0182 40.7085 61.7603C40.1446 61.2655 39.408 61.0137 38.6593 61.0596H37.5897V66.3856H38.6593C39.4074 66.431 40.1434 66.1805 40.7085 65.688Z" fill="white"/>
<path d="M51.0774 59.082V60.877H47.2549V62.9199H50.2063V64.6343H47.2549V68.4039H44.998V59.082H51.0774Z" fill="white"/>
<path d="M39.9179 18.25H34.4369C33.4815 18.25 32.707 19.0245 32.707 19.9798V25.4608C32.707 26.4162 33.4815 27.1906 34.4369 27.1906H39.9179C40.8733 27.1906 41.6478 26.4162 41.6478 25.4608V19.9798C41.6478 19.0245 40.8733 18.25 39.9179 18.25Z" fill="#FF3E4C"/>
</svg>
