<?xml version="1.0" encoding="utf-8"?>
<!-- Generator: Adobe Illustrator 15.0.0, SVG Export Plug-In . SVG Version: 6.00 Build 0)  -->
<!DOCTYPE svg PUBLIC "-//W3C//DTD SVG 1.1//EN" "http://www.w3.org/Graphics/SVG/1.1/DTD/svg11.dtd">
<svg version="1.1" id="Layer_1" xmlns="http://www.w3.org/2000/svg" xmlns:xlink="http://www.w3.org/1999/xlink" x="0px" y="0px"
	 width="549px" height="514px" viewBox="21.139 164.446 549 514" enable-background="new 21.139 164.446 549 514"
	 xml:space="preserve">
<g>
	<polygon fill="#164BCF" points="309.625,212.971 229.795,323.919 66.665,378.173 264.046,378.173 	"/>
	<path fill="#164BCF" d="M238.663,508.425l53.754-82.423c83.643-29.923,118.417-41.927,118.417-41.927l-138.94-0.179
		L238.663,508.425z"/>
	<path fill="#164BCF" d="M188.942,383.896l-5.929,9.388h63.646c-3.984,3.669-29.046,3.322-29.046,3.322h-37.041l-5.205,7.646h69.376
		c-4.339,6.627-31.983,6.1-31.983,6.1h-41.753l-5.901,8.352h76.349c-5.057,10.261-37.911,9.738-37.911,9.738H158.33l-6.626,9.388
		h82.078c-6.082,14.073-45.884,13.202-45.884,13.202h-45.585l-9.192,13.402h92.518c-6.279,14.075-45.935,13.201-45.935,13.201
		h-55.996l-12.154,17.213h103.298c-7.846,20.004-58.265,18.961-58.265,18.961H98.322L83.2,535.38h118.073
		c-7.818,22.439-58.411,21.223-58.411,21.223H68.229L46.688,587.56c0,0,95.478,0,117.371,0c21.92,0,42.248-4.878,47.651-22.964
		c2.587-8.693,27.127-96.699,50.615-180.699L188.942,383.896L188.942,383.896z"/>
	<path fill="#164BCF" d="M318.845,428.092c15.47,0,27.994,12.503,27.994,27.997c0,15.646-12.524,28.174-27.994,28.174
		c-15.646,0-28.171-12.527-28.171-28.174C290.674,440.594,303.198,428.092,318.845,428.092z"/>
	<path fill="#164BCF" d="M87.886,416.434v-32.011h52.882c-0.178,1.917-0.522,4.007-0.522,5.924c0,2.765-0.524,6.604-0.524,9.921
		c0,0.172,0,0.172,0,0.172c0,11.98,2.093,24.862,5.729,36.69l-29.218,41.378l-9.042,3.835l-12.157-29.742l16.518-6.775
		c-2.966-9.564-5.059-19.479-6.278-29.392H87.886L87.886,416.434z M252.039,278.185L252.039,278.185
		c1.048-0.18,2.268-0.18,3.314-0.352l23.663-32.707v-19.806h-32.184v17.912c-9.915,1.022-19.831,2.944-29.221,5.729l-6.946-16.342
		l-29.568,12.158l6.8,16.362c-8.896,4.687-17.238,10.266-25.062,16.521l-12.329-12.357l-22.793,22.616l12.355,12.333
		c-6.255,7.849-11.832,16.191-16.689,25.061l-16.189-6.626l-12.157,29.57l19.979,8.342l38.609-12.855
		c0.87-1.568,1.744-3.139,2.789-4.881h-0.177c2.792-4.682,5.731-9.215,9.046-13.375c6.602-8.344,14.273-16.017,22.767-22.62
		c4.187-3.313,8.719-6.251,13.401-8.867c3.488-2.093,7.124-3.986,10.96-5.557c0.175-0.172,0.352-0.172,0.525-0.344
		c0.346,0,0.692-0.18,0.871-0.354c0.346-0.172,0.696-0.345,1.044-0.345c0.146-0.179,0.351-0.179,0.696-0.351
		c0.349-0.177,0.847-0.349,1.196-0.521c0.176,0,0.348-0.18,0.525-0.18c0.346-0.172,0.696-0.349,1.217-0.521
		c0.176,0,0.354-0.172,0.524-0.172c0.349-0.18,0.699-0.353,1.044-0.353c0.351-0.175,0.699-0.349,1.046-0.349
		c0.177-0.179,0.353-0.179,0.522-0.352c0.524,0,0.872-0.172,1.224-0.348c0.173,0,0.523-0.173,0.697-0.173
		c0.349-0.178,0.698-0.352,1.046-0.352c0.351-0.172,0.498-0.172,0.696-0.348c1.896-0.522,3.812-1.05,5.902-1.573
		C237.964,279.927,244.913,278.705,252.039,278.185z"/>
	<path fill="#164BCF" d="M224.939,557.645c0,0,7.123-12.53,30.588-12.53c23.489,0,110.97,0,110.97,0s34.426-0.69,55.474-12.524
		c21.221-11.635,29.718-28.848,35.993-49.197c6.254-20.354,71.814-258.069,71.814-258.069H315.703l-11.108,40.682H477.79
		c0,0-0.521,2.439-1.741,6.6h-172.5l-2.091,7.673h172.496c-0.694,2.593-1.567,5.729-2.616,9.04H298.846l-2.096,7.653h172.52
		c-1.045,3.981-2.263,8.341-3.483,12.851h-172.5l-2.266,7.673H463.69c-1.37,4.857-2.766,10.092-4.334,15.296H286.836l-2.066,7.471
		h172.494c-1.741,6.252-3.485,12.707-5.207,19.13h-172.69l-2.096,7.649h172.697c-12.357,44.192-24.537,87.832-26.778,95.133
		c-4.71,15.295-11.313,28.521-27.327,37.389c-15.989,8.867-42.243,9.563-42.243,9.563s-76.668,0-94.43,0
		c-17.911,0-23.313,9.396-23.313,9.396L224.939,557.645z"/>
	<path fill="#164BCF" d="M219.533,576.427c0,0,6.949-12.527,30.438-12.527c23.49,0,144.347,0,144.347,0s18.084-0.874,39.133-12.53
		c21.025-11.636,34.773-28.87,41.023-49.195c5.059-16.864,50.97-182.787,66.438-239.311h-15.297
		c-18.08,65.913-57.91,209.567-62.795,225.209c-6.256,20.354-14.421,37.564-35.646,49.226
		c-21.021,11.831-39.456,12.524-39.456,12.524s-109.574,0-133.063,0c-23.467,0-30.415,12.504-30.415,12.504L219.533,576.427z"/>
	<path fill="#164BCF" d="M213.28,595.907c0,0,6.948-12.529,30.415-12.529c23.516,0,161.063,0,161.063,0s23.642-0.695,44.688-12.53
		c21.222-11.632,36.867-28.868,43.118-49.193c4.88-16.021,47.303-167.473,64.863-230.617h-17.211
		c-19.136,69.05-55.649,201.569-60.331,216.518c-6.275,20.35-18.459,37.562-39.655,49.393
		c-21.051,11.639-37.217,12.332-37.217,12.332s-131.12,0-154.61,0c-23.464,0-30.438,12.53-30.438,12.53L213.28,595.907z"/>
	<path fill="#164BCF" d="M55.551,625.275c0.354-0.672,1.051-1.891,1.896-3.811c0.372-0.523,0.697-1.396,1.223-2.616
		c-0.671-1.396-1.723-3.313-3.117-5.554c-0.174-0.352-1.567-2.439-3.835-6.453c-1.741-2.418-2.767-4.334-3.46-5.556
		c0.349,0,0.847,0,1.543,0.175c0.698,0,1.219,0,1.568,0c0.349,0,0.873,0,1.57,0c0.696-0.175,1.222-0.175,1.568-0.175
		c0.347,0.698,1.043,1.742,1.916,3.487c0.179,0.348,1.223,1.895,2.766,4.682c1.222,1.923,1.921,3.142,2.093,3.662
		c0.525-0.873,1.57-2.791,2.792-5.579c0.699-1.546,1.741-3.64,2.939-6.252l1.567,0.175l1.741-0.175
		c-0.696,1.222-1.916,3.663-3.656,7.123c-1.723,3.314-3.29,6.45-4.858,9.394c-1.742,3.662-2.792,6.103-3.315,7.473
		c-0.146,0-0.347,0-0.673,0c-0.372-0.175-0.696-0.175-0.871-0.175L55.551,625.275z"/>
	<path fill="#164BCF" d="M84.748,625.275v-23.987c0.347,0,0.696,0,1.243,0.175c0.697,0,1.021,0,1.396,0c0.325,0,0.673,0,1.196,0
		c0.698-0.175,1.044-0.175,1.396-0.175v9.567c0.699,0,1.742,0,3.138,0c1.219,0,1.917,0.172,2.269,0.172c0.847,0,1.369,0,1.894-0.172
		c2.092,0,3.313,0,3.485,0v-9.567c0.174,0,0.698,0,1.224,0.175c0.697,0,1.043,0,1.396,0c0.173,0,0.697,0,1.191,0
		c0.698-0.175,1.051-0.175,1.396-0.175v23.987c-0.346,0-0.697,0-1.219,0c-0.671-0.175-1.021-0.175-1.369-0.175
		c-0.354,0-0.698,0-1.396,0.175c-0.524,0-0.875,0-1.224,0V613.64c-0.697,0-1.742,0-3.139-0.173c-1.395,0-2.24,0-2.24,0
		c-0.896,0-1.745,0-2.79,0c-1.046,0-1.917,0.173-2.615,0.173v11.635c-0.177,0-0.696,0-1.223,0c-0.696-0.175-1.044-0.175-1.369-0.175
		c-0.373,0-0.697,0-1.247,0.175C85.445,625.275,85.094,625.275,84.748,625.275z"/>
	<path fill="#164BCF" d="M122.686,625.275v-23.987c0.348,0,0.846,0,1.371,0c0.52,0.175,1.044,0.175,1.392,0.175
		c0.173,0,0.697,0,1.223-0.175c0.524,0,1.044,0,1.396,0v16.344c1.916-2.095,4.157-4.687,6.948-7.997
		c2.438-3.313,4.533-6.08,6.254-8.347c0.347,0,0.696,0,0.896,0c0.147,0,0.5,0,0.847,0c0.521,0,0.698,0,0.87,0v23.987
		c-0.172,0-0.696,0-1.217,0c-0.5-0.175-1.05-0.175-1.396-0.175c-0.152,0-0.678,0-1.197,0.175c-0.522,0-1.048,0-1.395,0v-16.518
		c-1.916,2.27-4.36,5.061-6.802,8.174c-2.593,3.139-4.681,5.928-6.428,8.344c-0.174,0-0.348,0-0.698,0c-0.175,0-0.347,0-0.347,0
		c-0.347,0-0.524,0-0.872,0C123.182,625.275,123.032,625.275,122.686,625.275z"/>
	<path fill="#164BCF" d="M168.767,611.379c0.498,0,0.845-0.353,1.369-0.698c0.351-0.354,0.698-0.875,1.05-1.573
		c0.174-0.695,0.346-1.394,0.346-2.089c0-1.195-0.346-2.066-1.045-2.766c-0.351-0.523-1.022-0.871-1.72-0.871v-2.094h1.022
		c1.916,0,3.66,0.35,4.879,1.044c1.396,1.05,2.094,2.442,2.094,4.338c0,1.564-0.523,2.787-1.742,3.835
		c-1.048,0.874-2.44,1.395-4.015,1.741v0.179c1.747,0.346,2.966,0.693,4.188,1.395c1.396,1.043,2.093,2.591,2.093,4.508
		c0,2.27-0.873,4.012-2.617,5.231c-1.566,1.046-3.482,1.543-5.901,1.543v-2.065c0.696-0.176,1.195-0.525,1.894-1.223
		c0.871-0.698,1.223-1.918,1.223-3.313c0-1.744-0.522-3.141-1.572-3.834c-0.347-0.327-0.847-0.5-1.542-0.677v-2.611H168.767z
		 M165.978,603.382l1.742-0.18c0.347,0,0.698,0,1.046,0.18v-2.095h-8.02v23.813h8.02v-2.066c-0.349,0-0.699,0.174-1.046,0.174
		h-1.742v-9.565c1.045,0,2.089,0.178,2.789,0.35v-2.61c-0.349,0.173-1.046,0.173-1.744,0.173h-1.045V603.382L165.978,603.382z"/>
	<path fill="#164BCF" d="M192.58,601.287h13.376c0,0.351-0.147,0.524-0.147,0.871c0,0.173,0,0.522,0,0.698c0,0.173,0,0.346,0,0.695
		c0,0.348,0.147,0.525,0.147,0.699c-1.193-0.174-2.416-0.174-3.812-0.354c-1.223,0-2.613,0-4.36,0v7.479h3.663
		c0.697,0,1.223,0,1.919,0c0.521-0.176,1.396-0.176,2.44-0.352c0,0.176,0,0.352-0.2,0.698c0,0.349,0,0.698,0,0.871s0,0.349,0,0.696
		c0.2,0.348,0.2,0.523,0.2,0.695c-1.396-0.172-2.79-0.172-4.359-0.172h-3.663v8.868c1.747,0,3.139-0.179,4.36-0.179
		c1.396,0,2.617-0.174,3.812-0.346c0,0.172-0.147,0.522-0.147,0.695c0,0.348,0,0.525,0,0.873c0,0,0,0.346,0,0.672
		c0,0.345,0.147,0.523,0.147,0.696H192.58V601.287z"/>
	<path fill="#164BCF" d="M229.096,601.287h0.698c5.03,0,7.473,1.915,7.473,5.905c0,2.963-1.044,4.881-2.94,6.104
		c-1.241,0.693-2.964,1.215-5.229,1.37v-2.241c0.874-0.352,1.568-0.873,2.093-1.568c0.354-0.871,0.699-1.749,0.699-2.967
		c0-1.396-0.347-2.59-1.045-3.465c-0.353-0.523-1.049-1.043-1.747-1.223L229.096,601.287L229.096,601.287z M226.483,614.861
		c0.871,0,1.742,0,2.613-0.195v-2.24c-0.175,0.173-0.175,0.173-0.347,0.173c-0.699,0.173-1.568,0.173-2.268,0.173v-9.566h2.093
		c0.175,0,0.347,0,0.521,0v-1.915h-7.997v23.987c0.354,0,0.698,0,1.396,0c0.522-0.175,1.048-0.175,1.396-0.175
		c0.177,0,0.698,0,1.196,0.175c0.697,0,1.044,0,1.396,0L226.483,614.861L226.483,614.861z"/>
	<path fill="#164BCF" d="M269.801,621.113l0.35,0.176l-0.696,2.969c-1.049,0.492-2.244,0.845-3.289,1.189
		c-1.223,0.176-2.467,0.354-3.688,0.354c-3.812,0-6.949-1.051-9.391-3.291c-2.59-2.094-3.813-5.055-3.813-8.52
		c0-4.355,1.395-7.668,4.161-10.09c2.438-2.088,5.755-3.311,9.737-3.311c1.223,0,2.439,0.176,3.836,0.521
		c1.223,0.35,2.268,0.699,3.314,1.219l-0.696,3.662h-0.524c-0.697-0.871-1.542-1.742-2.593-2.266
		c-1.045-0.698-2.114-1.047-3.337-1.047c-2.589,0-4.681,1.219-6.25,3.461c-1.223,2.093-1.747,4.359-1.747,7.325
		c0,3.114,0.697,5.557,2.094,7.474c1.396,1.745,3.463,2.791,6.078,2.791c1.222,0,2.266-0.348,3.514-0.698
		C267.906,622.509,268.93,621.813,269.801,621.113z"/>
	<path fill="#164BCF" d="M285.442,625.275v-23.987c0.351,0,0.699,0,1.396,0c0.524,0.175,1.045,0.175,1.22,0.175
		c0.353,0,0.875,0,1.396-0.175c0.522,0,1.05,0,1.396,0v16.344c1.919-2.095,4.16-4.687,6.774-7.997
		c2.618-3.313,4.707-6.08,6.423-8.347c0.349,0,0.697,0,0.871,0s0.524,0,0.871,0c0.524,0,0.697,0,0.871,0v23.987
		c-0.174,0-0.697,0-1.218,0c-0.524-0.175-1.049-0.175-1.396-0.175c-0.151,0-0.696,0-1.195,0.175c-0.521,0-1.042,0-1.394,0v-16.518
		c-1.915,2.27-4.356,5.061-6.8,8.174c-2.589,3.139-4.684,5.928-6.603,8.344c0,0-0.347,0-0.521,0c-0.175,0-0.352,0-0.352,0
		c-0.349,0-0.697,0-0.871,0C285.989,625.275,285.792,625.275,285.442,625.275z"/>
	<path fill="#164BCF" d="M332.919,603.729v21.547c-0.173,0-0.697,0-1.396,0c-0.851-0.175-1.196-0.175-1.196-0.175
		c-0.174,0-0.697,0-1.223,0.175c-0.697,0-1.044,0-1.394,0v-21.547c-1.222,0-2.268,0.172-3.313,0.172
		c-0.871,0.18-1.916,0.18-3.111,0.354c0-0.354,0-0.523,0-0.871c0.174-0.18,0.174-0.353,0.174-0.699c0-0.174-0.174-0.522-0.174-0.695
		c0-0.35,0-0.523,0-0.696h17.908c0,0.522,0,1.044-0.174,1.394c0,0.349,0,0.521,0.174,0.871c0,0.176,0,0.526,0,0.699
		c-1.566-0.173-2.617-0.354-2.964-0.354C335.186,603.9,333.963,603.729,332.919,603.729z"/>
	<path fill="#164BCF" d="M353.441,601.287h13.403c-0.177,0.351-0.177,0.524-0.177,0.871c0,0.173,0,0.522,0,0.698
		c0,0.173,0,0.346,0,0.695c0,0.348,0.177,0.525,0.177,0.699c-1.222-0.174-2.44-0.174-3.838-0.354c-1.222,0-2.588,0-4.336,0v7.479
		h3.64c0.696,0,1.221,0,1.92,0c0.521-0.176,1.395-0.176,2.438-0.352c0,0.176-0.173,0.352-0.173,0.698c0,0.349,0,0.698,0,0.871
		s0,0.349,0,0.696s0.173,0.523,0.173,0.695c-1.396-0.172-2.79-0.172-4.357-0.172h-3.64v8.868c1.748,0,3.114-0.179,4.336-0.179
		c1.396,0,2.616-0.174,3.838-0.346c-0.177,0.172-0.177,0.522-0.177,0.695c0,0.348,0,0.525,0,0.873c0,0,0,0.346,0,0.672
		c0,0.345,0.177,0.523,0.177,0.696h-13.403V601.287L353.441,601.287z"/>
	<path fill="#164BCF" d="M391.529,603.729v21.547c-0.348,0-0.87,0-1.567,0c-0.698-0.175-1.047-0.175-1.047-0.175
		c-0.353,0-0.85,0-1.396,0.175c-0.498,0-1.021,0-1.368,0v-21.547c-1.219,0-2.269,0.172-3.141,0.172
		c-1.049,0.18-2.093,0.18-3.314,0.354c0-0.354,0-0.523,0.179-0.871c0-0.18,0-0.353,0-0.699c0-0.174,0-0.522,0-0.695
		c-0.179-0.35-0.179-0.523-0.179-0.696h18.088c-0.174,0.522-0.174,1.044-0.35,1.394c0,0.349,0.176,0.521,0.176,0.871
		c0,0.176,0,0.526,0.174,0.699c-1.723-0.173-2.766-0.354-3.116-0.354C393.621,603.9,392.577,603.729,391.529,603.729z"/>
	<path fill="#164BCF" d="M93.292,504.441l-18.959,10.059c-0.174-0.172-0.347-0.52-0.521-1.02c-0.176-0.523-0.176-0.87-0.347-1.222
		c-0.177-0.172-0.352-0.521-0.698-0.87c-0.35-0.523-0.523-0.699-0.697-1.047l13.025-6.947c-2.414-0.523-5.552-1.223-9.389-2.093
		c-3.464-0.522-6.604-1.05-9.192-1.396c-0.175-0.352-0.349-0.525-0.349-0.875c-0.178,0-0.178-0.348-0.352-0.521
		c-0.174-0.354-0.347-0.699-0.347-0.699l18.93-10.262c0.2,0.352,0.352,0.697,0.549,1.051c0.148,0.52,0.35,0.871,0.499,1.218
		c0.2,0.176,0.349,0.524,0.547,0.874c0.324,0.521,0.499,0.868,0.697,1.043l-13.225,6.951c2.787,0.695,5.905,1.395,9.563,2.094
		c3.464,0.695,6.602,1.221,9.22,1.568c0,0.172,0.174,0.348,0.174,0.348c0.175,0.176,0.175,0.348,0.349,0.523
		c0,0.176,0.172,0.352,0.35,0.521C93.116,503.913,93.292,504.266,93.292,504.441z"/>
	<path fill="#164BCF" d="M77.796,473.13c0.352,0.868,0.696,1.567,1.049,2.238l-9.22,3.664l11.659,2.439l1.045,2.617l1.048,2.238
		l-0.352,0.175l-14.62-3.46c-0.698,1.219-1.396,2.764-2.067,4.334c-1.223,2.266-2.094,4.531-2.963,6.449h-0.176
		c0-0.176-0.176-0.521-0.176-0.693c-0.173-0.354-0.173-0.527-0.348-0.878c-0.174-0.521-0.351-1.044-0.696-1.393
		c1.044-1.921,2.093-3.663,3.138-5.557c0.871-1.741,1.896-3.662,2.938-5.576l-9.215,3.659c0-0.695-0.353-1.573-0.698-2.268
		c-0.146-0.696-0.498-1.394-1.022-2.092l9.219-3.664c-1.919-0.671-4.358-1.37-7.497-2.42c-1.544-0.344-3.113-0.867-4.683-1.391
		c0-0.523-0.178-1.049-0.352-1.569c-0.174-0.176-0.349-0.521-0.525-0.696c0-0.351-0.172-0.523-0.346-0.868h0.173
		c1.567,0.693,2.964,1.216,4.334,1.914c1.044,0.351,2.439,0.869,4.184,1.396c1.048,0.348,1.919,0.695,2.618,1.043l7.996-12.703
		l0.347-0.175l0.875,2.44l1.22,2.441l-6.802,9.915l9.215-3.663c0.203,0.173,0.203,0.523,0.524,1.221
		C77.796,472.777,77.796,473.13,77.796,473.13z"/>
	<path fill="#164BCF" d="M51.716,464.955l-3.313-11.653c0.347,0,0.545,0,0.697,0c0.348,0,0.521-0.178,0.696-0.178
		s0.348,0,0.698-0.173c0.174-0.176,0.348-0.176,0.521-0.351c0.177,1.049,0.351,2.268,0.698,3.313
		c0.178,1.221,0.524,2.414,0.874,3.813l6.599-1.895l-0.847-3.14c-0.198-0.522-0.345-1.044-0.523-1.569
		c-0.172-0.521-0.521-1.223-0.871-2.094c0.175,0,0.352,0,0.699,0c0.172,0,0.498-0.172,0.498-0.172c0.198,0,0.347-0.176,0.698-0.176
		c0.347-0.172,0.522-0.354,0.697-0.354c0.173,1.225,0.347,2.444,0.696,3.839l1.044,3.142l7.646-2.271
		c-0.521-1.391-0.87-2.609-1.219-3.656c-0.522-1.053-0.872-2.096-1.193-3.116c0.151,0,0.321,0,0.671-0.175c0.174,0,0.346,0,0.522,0
		c0.176-0.173,0.349-0.173,0.698-0.347c0.175,0,0.521-0.179,0.521-0.179l3.49,11.46L51.716,464.955z"/>
	<path fill="#164BCF" d="M60.756,446.178v-4.713l4.36-1.043l-0.346-1.57c-0.174-0.847-0.699-1.721-1.748-2.24
		c-0.521-0.352-1.396-0.699-2.269-0.521v-4.709c1.051,0.176,2.096,0.523,2.966,1.396c1.222,1.043,2.093,2.613,2.617,4.707
		l1.544,7.125L60.756,446.178L60.756,446.178z M51.194,443.559v4.859l9.563-2.24v-4.713l-3.982,0.871
		c-0.351-1.742-0.351-3.135,0-3.983c0.524-1.043,1.568-1.741,3.114-2.265c0.35,0,0.696,0,0.869,0v-4.709
		c-0.691-0.175-1.392-0.175-2.088,0c-1.723,0.523-2.939,1.396-3.465,2.967c-0.35,1.043-0.522,2.266-0.35,3.808h-0.347
		c-0.524-1.37-1.225-2.413-2.268-3.11c-0.348-0.178-0.698-0.354-1.046-0.523v4.186c0.175,0,0.349,0,0.699,0
		c0.521,0,1.045,0.321,1.567,0.5c0.349,0.35,0.699,0.695,0.871,1.043c0.176,0.35,0.349,0.871,0.521,1.57l0.177,0.871L51.194,443.559
		L51.194,443.559L51.194,443.559z M47.905,444.432L47.905,444.432l3.29-0.873v4.859l-4.161,0.869l-1.741-7.822
		c-0.352-1.742-0.352-3.313,0-4.334c0.521-1.566,1.567-2.441,3.313-2.785c0.846-0.179,1.717-0.179,2.591,0.172v4.186
		c-0.35,0-0.874,0-1.221,0c-1.024,0.321-1.896,0.85-2.269,1.543c-0.498,0.699-0.498,1.57-0.32,2.617L47.905,444.432z"/>
	<path fill="#164BCF" d="M58.49,410.702l0.179-0.351l2.787,0.351c0.524,0.875,0.871,1.72,1.223,2.77
		c0.347,1.043,0.698,2.089,0.87,3.136c0.352,3.491-0.172,6.431-1.919,8.868c-1.563,2.438-3.982,3.811-7.297,4.162
		c-3.834,0.52-6.946-0.354-9.392-2.417c-2.093-2.093-3.489-4.881-3.836-8.519c-0.174-1.05-0.174-2.097,0-3.317
		c0-1.215,0.349-2.267,0.699-3.138l3.312,0.35v0.347c-0.696,0.699-1.396,1.57-1.743,2.616c-0.349,0.874-0.522,1.921-0.522,2.967
		c0.351,2.441,1.569,4.158,3.84,5.205c1.916,0.871,4.157,1.219,6.596,0.871c2.792-0.348,4.859-1.223,6.43-2.789
		c1.396-1.545,2.094-3.463,1.742-5.73c0-1.044-0.347-1.913-1.045-2.965C59.886,412.248,59.188,411.378,58.49,410.702z"/>
	<path fill="#164BCF" d="M61.628,406.867H40.06c0-0.347,0-0.697,0.199-1.222c0-0.52,0-0.871,0-1.219c0-0.176,0-0.695,0-1.224
		c-0.199-0.521-0.199-0.869-0.199-1.043h9.914c-3.114-2.768-6.43-5.556-9.914-8.179c0-0.172,0.199-0.521,0.199-0.871
		c0-0.521,0-0.698,0-0.871c0-0.179,0-0.5,0-0.851c0-0.172-0.199-0.521-0.199-0.871h0.348c1.044,1.222,2.267,2.242,3.313,3.463
		c0.698,0.699,1.744,1.576,3.141,2.795c0.847,0.871,1.544,1.396,2.242,1.92l12.179-8.702h0.349l-0.174,2.594l0.174,2.62
		l-9.912,6.952h9.912c0,0.174,0,0.521,0,1.044c-0.174,0.525-0.174,1.047-0.174,1.223c0,0.348,0,0.699,0.174,1.219
		C61.628,406.17,61.628,406.521,61.628,406.867z"/>
	<path fill="#164BCF" d="M61.281,388.602l-21.373-2.262c0-0.172,0-0.698,0.152-1.046c0.199-0.523,0.199-1.048,0.199-1.22
		c0.147-0.352,0.147-0.697,0-1.222c0-0.5,0-0.847,0-1.199l14.771,1.543c-1.747-1.89-4.013-4.154-6.626-6.945
		c-2.593-2.591-4.858-4.684-6.952-6.43c0.178-0.347,0.178-0.696,0.178-0.871c0-0.176,0-0.348,0-0.693
		c0.175-0.354,0.175-0.699,0.175-0.875l21.396,2.265c0,0.351,0,0.699-0.176,1.222c0,0.526-0.173,0.874-0.173,1.22
		c0,0.179,0,0.525,0,1.05c0,0.521,0,1.043-0.174,1.222l-14.599-1.573c1.72,2.069,3.987,4.334,6.602,6.954
		c2.617,2.612,4.858,4.684,6.774,6.601c0,0,0,0.176,0,0.348c0,0.351,0,0.351,0,0.523c0,0.176-0.175,0.521-0.175,0.697
		C61.281,388.084,61.281,388.43,61.281,388.602z"/>
	<path fill="#164BCF" d="M63.721,365.492l-19.825-4.885v-4.706c0-0.179,0-0.179,0.172-0.179l14.272,3.49
		c-1.396-2.098-3.313-4.684-5.577-7.821c-2.268-2.791-4.161-5.232-5.904-7.298c0-0.353,0.174-0.523,0.174-0.699
		c0.175-0.172,0.175-0.523,0.175-0.871c0.177-0.352,0.177-0.521,0.177-0.699l20.846,5.205c0,0.175-0.174,0.526-0.174,1.046
		c-0.173,0.524-0.349,0.875-0.525,1.225c0,0.172,0,0.52-0.172,1.046c0,0.521-0.174,1.046-0.174,1.218l-14.42-3.659
		c1.566,2.267,3.484,4.884,5.726,7.817c2.094,2.967,4.188,5.407,5.757,7.497c0,0.18,0,0.352,0,0.525
		c-0.174,0.172-0.174,0.172-0.174,0.354c0,0.172-0.174,0.52-0.174,0.693C63.898,364.969,63.721,365.289,63.721,365.492
		L63.721,365.492z M43.896,353.135c0.346-0.695,0.699-1.396,0.871-2.095c0.348-1.395,0.348-2.964,0.174-4.354
		c-0.174-1.022-0.522-2.072-1.045-3.116V353.135L43.896,353.135L43.896,353.135z M43.896,360.608v-4.706
		c0,0.172,0,0.521-0.177,1.043c0,0.523,0,0.871-0.175,1.05c0,0.346-0.174,0.695-0.347,1.22c-0.175,0.522-0.351,0.869-0.351,1.047
		L43.896,360.608L43.896,360.608L43.896,360.608z M43.896,343.571L43.896,343.571c-0.177-0.348-0.352-0.875-0.524-1.218l-1.92,0.871
		c1.571,2.441,1.92,4.854,1.396,7.123c-0.349,1.218-0.873,2.265-1.57,3.139c-0.87,1.046-1.716,1.892-2.963,2.589l1.395,1.57
		c1.223-0.699,2.439-1.742,3.314-2.768c0.349-0.521,0.696-1.043,0.873-1.742L43.896,343.571L43.896,343.571z"/>
	<path fill="#164BCF" d="M57.297,321.127l17.71,7.147c0,0.148-0.149,0.5-0.5,1.021c-0.176,0.525-0.35,0.869-0.35,1.046
		c-0.172,0.352-0.348,0.697-0.523,1.222c-0.17,0.524-0.17,0.871-0.347,1.043l-20.005-7.994l4.534-11.132
		c0.18,0.172,0.523,0.172,0.673,0.347c0.179,0.178,0.353,0.178,0.524,0.354c0.173,0,0.351,0,0.697,0.171
		c0.174,0,0.523,0,0.696,0.172c-0.696,1.222-1.222,2.27-1.741,3.144C58.342,318.336,57.817,319.557,57.297,321.127z"/>
	<path fill="#164BCF" d="M79.889,294.175c2.791,1.57,4.508,3.662,5.405,6.604c0.845,3.136,0.351,6.447-1.396,9.563
		c-1.742,3.14-4.008,5.23-6.8,6.103c-1.043,0.348-1.891,0.348-2.938,0.348v-4.709c1.049,0.35,2.241,0.527,3.29,0.35
		c2.095-0.172,3.662-1.219,4.707-3.137c1.223-1.892,1.223-3.986,0-6.08c-1.044-1.914-2.785-3.487-5.403-4.854
		c-0.847-0.522-1.744-0.874-2.593-1.05v-4.881C76.054,292.43,77.974,293.125,79.889,294.175L79.889,294.175z M74.158,316.793v-4.71
		c-0.87-0.173-1.569-0.522-2.44-1.047c-2.964-1.74-5.053-3.46-5.903-5.381c-0.871-1.917-0.871-3.834,0.174-5.752
		c1.024-1.894,2.767-2.937,5.033-3.114c1.048,0,2.093,0.179,3.138,0.522v-4.881c-0.693,0-1.393,0.175-1.916,0.175
		c-3.14,0.699-5.729,2.792-7.822,6.275c-1.742,3.292-2.268,6.603-1.396,9.564c0.697,2.94,2.444,5.206,5.383,6.775
		C70.322,316.272,72.242,316.793,74.158,316.793L74.158,316.793z"/>
	<path fill="#164BCF" d="M97.102,281.146l0.349-0.172l1.917,2.065c-0.174,1.049-0.523,2.093-0.87,3.14
		c-0.521,0.87-1.048,1.921-1.744,2.792c-1.919,2.765-4.334,4.506-7.126,5.204c-2.79,0.699-5.578,0.173-8.169-1.569
		c-3.313-2.266-5.06-5.032-5.403-8.169c-0.148-2.967,0.696-5.903,2.79-8.868c0.525-1.046,1.391-1.744,2.267-2.619
		c0.871-0.669,1.742-1.367,2.615-1.891l2.266,2.414l-0.198,0.525c-1.045,0-2.066,0.172-3.112,0.694
		c-1.05,0.349-1.747,1.046-2.269,1.917c-1.396,1.921-1.742,4.014-0.697,6.255c0.697,1.914,2.268,3.663,4.335,5.232
		c2.267,1.565,4.36,2.24,6.628,2.065c2.09,0,3.81-1.021,5.054-2.942c0.698-0.871,1.021-1.742,1.197-2.962
		C97.277,283.211,97.277,282.168,97.102,281.146z"/>
	<path fill="#164BCF" d="M104.924,277.311c-0.174-0.699-0.671-1.742-1.542-3.486c-0.177-0.523-0.524-1.395-0.876-2.417
		c-1.396-0.349-3.313-0.698-5.752-1.047c-0.323,0-2.592-0.348-6.602-0.87c-2.766-0.523-4.708-0.698-5.903-1.047
		c0.147-0.176,0.5-0.522,1.046-1.046c0.351-0.353,0.696-0.698,1.021-1.043c0.174-0.176,0.373-0.525,0.697-1.05
		c0.373-0.521,0.698-0.871,0.873-1.219c0.696,0.172,1.74,0.521,3.487,0.698c0.347,0.172,1.917,0.344,4.855,0.871
		c1.919,0.348,3.138,0.522,3.661,0.698c-0.175-0.874-1.049-2.62-2.094-5.212c-0.696-1.219-1.567-3.136-2.766-5.576l1.022-1.047
		l0.87-1.223c0.522,1.223,1.395,3.314,2.79,6.627c1.394,3.115,2.614,5.903,3.836,8.695c1.37,3.313,2.415,5.554,3.112,6.601
		c-0.173,0.175-0.173,0.352-0.522,0.522c-0.175,0.172-0.349,0.352-0.521,0.522L104.924,277.311z"/>
	<path fill="#164BCF" d="M115.362,247.571c0.174,0.169,0.349,0.169,0.697,0.348c2.96,1.396,6.075,2.612,9.389,4.007l1.049-1.042
		c0.174,0.348,0.349,0.522,0.521,0.698c0.35,0.344,0.35,0.521,0.522,0.672c0.173,0.199,0.352,0.348,0.697,0.522
		c0.347,0.172,0.524,0.348,0.697,0.521l-0.352,0.349c-0.521-0.169-1.219,0.179-2.089,0.699c-0.697,0.522-1.573,1.222-2.439,2.092
		l-6.428,6.604c-1.048,1.047-1.747,1.745-2.268,2.44v-3.288c0.174-0.352,0.521-0.697,1.044-1.05c0.699-0.691,1.396-1.22,1.742-1.742
		c0.524-0.521,1.222-1.218,1.919-1.915c0.524-0.525,1.223-1.222,1.568-1.749c-1.919-1.042-4.008-1.914-6.102-2.96
		c-0.174,0-0.174,0-0.174-0.176v-5.028L115.362,247.571L115.362,247.571z M111.896,265.479c0.174,0.175,0.348,0.349,0.524,0.522
		c0.322,0.176,0.497,0.352,0.675,0.694c0.345,0.176,0.52,0.348,0.695,0.699c0.199,0.171,0.349,0.348,0.521,0.522l0.179-0.353
		c0-0.522,0.173-1.215,0.697-1.914c0.174,0,0.174-0.175,0.174-0.175v-3.288c-0.351,0.147-0.524,0.32-0.698,0.5
		c-0.871-1.895-1.92-3.985-2.938-6.427c-0.871-2.094-1.742-4.162-2.792-6.432c2.093,0.875,4.163,1.921,6.429,2.769v-5.029
		c-3.117-1.394-6.078-2.615-8.695-3.814c-0.173,0-0.352,0.151-0.522,0.324c-0.174,0.349-0.349,0.522-0.349,0.698
		c-0.172,0-0.351,0.177-0.522,0.349c-0.349,0.173-0.521,0.352-0.521,0.352c1.045,2.439,2.089,4.534,2.789,6.447
		c0.87,1.719,1.744,3.811,2.79,6.256c0.87,2.092,1.741,4.33,2.414,6.423L111.896,265.479L111.896,265.479z"/>
	<path fill="#164BCF" d="M133.271,240.094l-5.032,4.162v-2.417l3.285-2.787l-3.285-1.921v-5.206l15.118,8.349
		c-0.174,0.172-0.692,0.521-1.192,1.043c-0.55,0.349-0.896,0.522-1.049,0.699c-0.198,0.172-0.524,0.521-1.045,1.043
		c-0.522,0.352-0.87,0.697-0.87,0.697c-1.396-0.87-2.267-1.568-2.966-1.917C135.187,241.144,134.143,240.445,133.271,240.094
		L133.271,240.094z M128.24,246.177L128.24,246.177c0.347,1.042,0.697,2.086,0.87,2.611c0.352,0.871,0.673,1.741,0.873,2.266
		l-1.218,0.87l-0.524,0.676L128.24,246.177L128.24,246.177z M128.24,244.256v-2.417l-1.044,0.871l-2.445-7.644l3.489,2.063v-5.206
		l-5.405-2.967l-0.847,0.698l-1.049,0.699l6.775,22.593l0.524-0.348v-6.423c-0.173-0.527-0.347-1.051-0.524-1.574L128.24,244.256
		L128.24,244.256z"/>
	<path fill="#164BCF" d="M144.055,228.785l5.231,7.824c-0.349,0.172-0.699,0.349-1.046,0.521c-0.523,0.352-0.871,0.522-1.049,0.698
		c-0.346,0.176-0.521,0.353-1.045,0.694c-0.347,0.353-0.697,0.526-0.87,0.699l-3.313-4.854v-8.72l1.219,1.565
		c0.524-0.344,1.046-0.694,1.567-1.219c0.697-0.676,1.049-1.546,0.872-2.593c0-0.695-0.348-1.565-0.872-2.437
		c-0.696-1.051-1.396-1.749-2.242-2.094c-0.197-0.177-0.346-0.177-0.545-0.177v-2.79c2.787-1.195,5.056-0.5,6.623,1.917
		c1.396,2.093,1.568,4.187,0.699,6.105C148.415,225.501,146.673,227.044,144.055,228.785L144.055,228.785z M141.966,234.369v-8.72
		l-3.462-5.553l1.566-1.051c0.521-0.526,1.197-0.526,1.896-0.349v-2.79c-0.499,0.175-1.196,0.525-1.896,1.046l-6.601,4.187
		L141.966,234.369L141.966,234.369z"/>
	<path fill="#164BCF" d="M171.882,219.219h0.521l0.524,2.619c-0.524,0.87-1.223,1.741-2.094,2.266
		c-0.871,0.699-1.718,1.396-2.768,1.895c-3.137,1.569-5.926,1.917-8.889,1.219c-2.768-0.694-5.034-2.592-6.429-5.377
		c-1.744-3.49-2.066-6.774-0.871-9.742c1.218-2.616,3.311-4.882,6.622-6.601c0.875-0.352,1.92-0.87,3.116-1.051
		c1.045-0.344,2.267-0.52,3.313-0.344l0.696,3.112l-0.347,0.177c-0.875-0.523-1.921-0.699-2.965-0.699
		c-1.048-0.176-2.093,0-2.938,0.522c-2.268,1.047-3.314,2.788-3.663,5.229c-0.174,2.094,0.349,4.334,1.396,6.604
		c1.392,2.439,2.939,4.187,4.855,5.058c1.918,0.871,3.835,0.871,6.102-0.172c0.85-0.526,1.544-1.223,2.242-2.093
		C171.006,221.14,171.531,220.097,171.882,219.219z"/>
	<path fill="#164BCF" d="M177.985,200.094l6.772,18.082c-0.172,0-0.696,0.173-1.223,0.345c-0.696,0.18-0.87,0.354-1.043,0.354
		c-0.178,0.172-0.522,0.172-1.044,0.522c-0.351,0.172-0.876,0.349-1.05,0.521l-6.949-18.083c-1.048,0.352-1.919,0.871-2.615,1.223
		c-0.699,0.349-1.568,0.694-2.59,1.219c-0.178-0.172-0.178-0.522-0.178-0.698c0-0.171-0.199-0.345-0.199-0.521
		c-0.146-0.352-0.146-0.522-0.32-0.699c-0.174-0.172-0.174-0.347-0.353-0.522l15.119-5.729c0.178,0.349,0.178,0.874,0.352,1.22
		c0,0.175,0.174,0.499,0.349,0.675c0,0.172,0.177,0.349,0.351,0.522c-1.569,0.348-2.439,0.699-2.792,0.699
		C179.701,199.566,178.856,199.741,177.985,200.094z"/>
	<path fill="#164BCF" d="M193.628,201.662h0.175c0.521-0.177,1.043-0.526,1.395-0.699c0.348-0.175,0.521-0.522,0.871-0.871
		c0.348-0.526,0.523-1.05,0.523-1.745c0-0.522,0-1.198-0.352-1.719c-0.346-1.223-0.87-1.921-1.567-2.27
		c-0.349-0.172-0.698-0.347-1.045-0.347v-2.094c1.567-0.349,2.787-0.522,3.984-0.176c1.394,0.353,2.443,1.396,2.962,2.964
		c0.525,1.396,0.349,2.615-0.346,3.813c-0.697,1.043-1.568,1.917-2.965,2.439v0.349c1.569-0.349,2.792-0.349,4.01,0
		c1.568,0.522,2.615,1.572,3.139,3.136c0.524,1.922,0.352,3.644-0.871,5.209c-1.044,1.395-2.617,2.44-4.535,2.965l-5.377,1.917
		v-10.263l2.438,7.475l1.37-0.522c1.046-0.177,1.744-0.875,2.094-1.746c0.524-1.043,0.697-2.089,0.173-3.284
		c-0.522-1.568-1.221-2.443-2.268-2.792c-1.022-0.348-2.241-0.348-3.811,0.172L193.628,201.662L193.628,201.662z M190.489,194.887
		l1.57-0.527c0.521-0.172,1.044-0.347,1.568-0.347v-2.094c-0.173,0.177-0.352,0.177-0.352,0.177l-7.82,2.439l6.604,20.353
		l1.568-0.352v-10.263l-0.173-0.522c0-0.176,0-0.176,0.173-0.176v-1.914l-0.871,0.349L190.489,194.887L190.489,194.887z"/>
	<path fill="#164BCF" d="M205.11,188.983l11.633-2.269c0,0.176,0.176,0.521,0.176,0.699c0,0.349,0,0.521,0,0.697
		c0,0.173,0.172,0.349,0.172,0.521c0.179,0.352,0.179,0.499,0.179,0.672c-1.049,0.176-2.068,0.176-3.29,0.351
		c-1.044,0.173-2.439,0.349-3.836,0.696l1.222,6.629l3.287-0.699c0.55,0,1.044-0.175,1.569-0.351
		c0.522-0.173,1.222-0.349,2.093-0.523c0,0,0,0.176,0.172,0.523c0,0.351,0,0.522,0,0.698c0,0.173,0,0.352,0.176,0.694
		c0.178,0.176,0.178,0.499,0.178,0.676c-1.225,0-2.445,0.172-3.842,0.349l-3.109,0.694l1.395,7.825
		c1.569-0.352,2.767-0.5,3.988-0.871c1.044-0.328,2.089-0.676,3.136-1.022c0,0.348,0,0.522,0,0.871c0,0.151,0,0.351,0.177,0.522
		c0,0.147,0,0.323,0.173,0.672c0,0.176,0.175,0.525,0.175,0.698l-11.833,2.266L205.11,188.983z"/>
	<path fill="#164BCF" d="M223.891,206.516l-1.916-21.375c0.346,0,0.696,0,1.219,0s0.874,0,1.221,0c0.175,0,0.673-0.172,1.223-0.172
		c0.495-0.173,0.847-0.173,1.02-0.173l0.872,8.342c0.522,0,1.568,0,2.616-0.173c1.219,0,1.917,0,2.095,0
		c0.692-0.172,1.392-0.172,1.742-0.172c1.896-0.352,2.938-0.352,3.113-0.352l-0.871-8.517c0.347,0,0.696,0,1.222,0
		c0.521,0,0.871,0,1.22,0c0.176,0,0.698-0.176,1.223-0.176c0.521-0.175,0.87-0.175,1.045-0.352l1.919,21.574
		c-0.174,0-0.697,0-1.223,0c-0.522,0-0.871,0-1.223,0c-0.172,0-0.521,0.172-1.043,0.172c-0.522,0.176-0.873,0.176-1.22,0.176
		l-0.875-10.435c-0.521,0-1.568,0.172-2.786,0.172c-1.197,0-1.896,0.172-2.068,0.172c-0.697,0-1.567,0-2.44,0.176
		c-0.874,0.176-1.745,0.176-2.271,0.352l0.877,10.438c-0.178,0-0.697,0-1.223,0c-0.524,0-0.871,0-1.044,0
		c-0.352,0-0.673,0.173-1.223,0.173C224.589,206.516,224.241,206.516,223.891,206.516z"/>
	<path fill="#164BCF" d="M247.356,204.275v-21.569c0.174,0,0.699,0.176,1.219,0.176c0.523,0,0.875,0,1.049,0
		c0.349,0,0.697,0,1.223,0c0.521,0,0.847-0.176,1.192-0.176v8.521c0.696,0,1.569,0,2.789,0.172c1.045,0,1.742,0,2.095,0
		c0.696,0,1.22,0,1.742,0c1.718,0,2.768-0.172,2.964-0.172v-8.521c0.351,0,0.698,0.176,1.196,0.176c0.521,0,0.872,0,1.221,0
		c0.172,0,0.522,0,1.067,0c0.499,0,1.051-0.176,1.198-0.176v21.569c-0.147,0-0.5,0-1.021,0c-0.549-0.172-1.073-0.172-1.246-0.172
		c-0.349,0-0.698,0-1.221,0.172c-0.498,0-0.847,0-1.196,0v-10.438c-0.55,0-1.396,0-2.79-0.172c-1.22,0-1.916,0-1.916,0
		c-0.872,0-1.568,0-2.616,0c-0.871,0-1.72,0.172-2.268,0.172v10.438c-0.147,0-0.672,0-1.193,0c-0.523-0.172-0.875-0.172-1.222-0.172
		c-0.175,0-0.524,0-1.049,0.172C248.056,204.275,247.531,204.275,247.356,204.275z"/>
	<path fill="#164BCF" d="M277.971,192.096h0.521c4.538,0,6.805,1.741,6.805,5.229c0,2.592-0.875,4.337-2.617,5.561
		c-1.22,0.69-2.792,1.218-4.707,1.218v-2.092c0.695-0.177,1.396-0.699,1.742-1.398c0.35-0.694,0.697-1.569,0.697-2.788
		c0-1.194-0.349-2.064-0.871-2.938c-0.522-0.527-1.051-0.874-1.568-1.051L277.971,192.096L277.971,192.096z M288.057,204.275
		L288.057,204.275v-21.569c0.177,0,0.696,0.176,1.222,0.176s0.871,0,1.046,0c0.351,0,0.698,0,1.222,0
		c0.524,0,0.871-0.176,1.223-0.176v21.569c-0.179,0-0.697,0-1.223,0c-0.522-0.172-0.871-0.172-1.222-0.172
		c-0.175,0-0.521,0-1.046,0.172C288.754,204.275,288.234,204.275,288.057,204.275L288.057,204.275z M275.555,182.705
		c-0.35,0-0.697,0-1.221,0c-0.524,0-0.873,0-1.225,0c-0.174,0-0.696,0-1.219,0c-0.523,0-0.875,0-1.047,0v21.397h6.254
		c0.172,0,0.545,0,0.871,0v-2.092c-0.173,0.175-0.326,0.175-0.326,0.175c-0.373,0-0.692,0.172-1.043,0.172c-0.349,0-0.698,0-1.046,0
		v-8.521h1.891c0.199,0,0.354,0,0.525,0v-1.741h-2.416L275.555,182.705L275.555,182.705z"/>
	<path fill="#164BCF" d="M297.101,204.275v-21.569c0.175,0,0.696,0.176,1.22,0.176c0.525,0,0.871,0,1.223,0c0.173,0,0.523,0,1.044,0
		c0.523,0,1.05-0.176,1.223-0.176V197.5c1.739-1.917,3.81-4.36,6.249-7.32c2.265-2.766,4.188-5.208,5.729-7.475
		c0.353,0,0.551,0,0.698,0c0.175,0,0.552,0,0.871,0c0.349,0,0.524,0,0.697,0v21.569c-0.173,0-0.523,0-1.019,0
		c-0.552-0.172-1.05-0.172-1.25-0.172c-0.348,0-0.696,0-1.195,0.172c-0.546,0-0.896,0-1.217,0V189.48
		c-1.748,2.093-3.837,4.534-6.104,7.322c-2.242,2.765-4.158,5.384-5.728,7.474c-0.174,0-0.353,0-0.522,0c-0.174,0-0.349,0-0.524,0
		c-0.175,0-0.521,0-0.697,0C297.624,204.275,297.275,204.275,297.101,204.275L297.101,204.275z M298.846,179.042L298.846,179.042
		l1.222-1.718c1.044,1.043,2.091,1.718,3.132,2.241c1.195,0.522,2.244,0.695,3.462,0.695c2.444,0,4.713-0.871,6.777-2.938
		l1.221,1.543c-1.221,1.222-2.414,2.093-3.812,2.615c-1.396,0.522-2.79,0.874-4.36,0.874c-1.396,0-2.789-0.352-3.983-0.874
		C301.111,180.959,299.891,180.088,298.846,179.042z"/>
	<path fill="#164BCF" d="M339.545,184.97v19.305c-0.176,0-0.697,0-1.222,0c-0.696-0.172-1.049-0.172-1.049-0.172
		c-0.348,0-0.698,0-1.219,0.172c-0.524,0-0.871,0-1.223,0V184.97c-1.045,0-2.089,0-2.768,0.172c-0.871,0-1.915,0.179-2.964,0.353
		c0-0.353,0-0.522,0-0.871c0.179-0.172,0.179-0.352,0.179-0.522c0-0.349,0-0.522-0.179-0.699c0-0.345,0-0.521,0-0.694h16.168
		c-0.174,0.522-0.174,0.871-0.174,1.395c0,0.172,0,0.352,0,0.698c0,0.173,0.174,0.522,0.174,0.696
		c-1.568-0.173-2.439-0.353-2.792-0.353C341.436,184.97,340.564,184.97,339.545,184.97z"/>
	<path fill="#164BCF" d="M347.363,182.705h12.009c-0.199,0.352-0.199,0.522-0.199,0.871c0,0.175,0,0.352,0,0.522s0,0.352,0,0.698
		c0,0.345,0,0.522,0.199,0.696c-1.244-0.173-2.269-0.353-3.488-0.353c-1.046,0-2.44-0.172-3.836-0.172v6.773h3.313
		c0.521,0,1.046,0,1.568,0c0.524,0,1.196-0.173,2.241-0.173c0,0,0,0.349-0.146,0.523c0,0.348,0,0.698,0,0.698
		c0,0.172,0,0.345,0,0.694c0.146,0.349,0.146,0.523,0.146,0.698c-1.196-0.175-2.592-0.175-3.812-0.175h-3.313v7.82
		c1.396,0,2.79,0,3.836,0c1.222-0.173,2.244-0.173,3.488-0.349c-0.199,0.176-0.199,0.524-0.199,0.699c0,0.172,0,0.521,0,0.698
		c0,0,0,0.349,0,0.521c0,0.348,0,0.523,0.199,0.698h-12.009L347.363,182.705L347.363,182.705z"/>
	<path fill="#164BCF" d="M377.978,183.055l-2.963,4.357l-3.662,5.205l0.351,0.698c1.044,1.741,2.09,3.662,3.141,5.553
		c1.044,1.741,2.091,3.662,3.136,5.756c-0.347,0-0.871,0-1.567,0c-0.697-0.181-1.223-0.181-1.223-0.181
		c-0.346,0-0.871,0-1.567,0.181c-0.697,0-1.047,0-1.047,0c-0.697-1.396-1.566-2.964-2.615-5.062
		c-0.496-0.871-1.045-1.917-1.545-2.938l-2.963,4.506c-0.176,0.526-0.699,1.051-1.046,1.749c-0.352,0.69-0.698,1.219-0.872,1.742
		l-1.567-0.181l-1.544,0.181c0.848-1.223,1.718-2.44,2.242-3.314c1.218-1.745,1.916-2.788,2.267-3.313
		c0.695-0.852,1.396-2.068,2.262-3.291l-6.423-11.652c0.348,0,0.698,0,1.37,0.172c0.524,0,1.045,0,1.396,0c0.349,0,0.698,0,1.396,0
		c0.521-0.172,1.046-0.172,1.396-0.172c0.521,1.216,1.394,2.784,2.439,4.705c0.496,1.022,0.846,1.895,1.391,2.938
		c1.549-2.586,3.117-5.029,4.86-7.643l1.396,0.172L377.978,183.055z"/>
	<path fill="#164BCF" d="M380.571,204.626v-21.57c0.176,0,0.521,0,1.045,0.172c0.523,0,1.044,0,1.223,0c0.347,0,0.697,0,1.22,0
		c0.522-0.172,0.875-0.172,1.223-0.172v8.517c0.697,0,1.543,0,2.588,0.173c1.222,0,1.919,0,2.095,0c0.869,0,1.396,0,1.919,0
		c1.741-0.173,2.786-0.173,2.965-0.173v-8.517c0.174,0,0.672,0,1.217,0.172c0.5,0,0.853,0,1.05,0c0.323,0,0.673,0,1.193,0
		c0.522-0.172,1.048-0.172,1.222-0.172v21.57c-0.174,0-0.697,0-1.222,0c-0.521-0.181-0.87-0.181-1.193-0.181
		c-0.197,0-0.55,0-1.05,0.181c-0.545,0-0.869,0-1.217,0v-10.438c-0.525,0-1.573-0.175-2.791-0.175c-1.224,0-1.914,0-2.093,0
		c-0.698,0-1.569,0-2.441,0c-0.846,0-1.72,0-2.239,0.175v10.438c-0.348,0-0.698,0-1.223,0c-0.521-0.181-0.873-0.181-1.22-0.181
		c-0.179,0-0.524,0-1.049,0.181C381.266,204.626,380.746,204.626,380.571,204.626z"/>
	<path fill="#164BCF" d="M404.059,204.626v-21.57c0.173,0,0.524,0,1.045,0.172c0.522,0,0.851,0,1.196,0c0.199,0,0.697,0,1.223,0
		c0.524-0.172,0.871-0.172,1.221-0.172v14.77c1.743-1.895,3.834-4.334,6.104-7.299c2.235-2.939,4.156-5.384,5.728-7.471
		c0.35,0,0.696,0,0.87,0c0.177,0,0.352,0,0.697,0c0.351,0,0.696,0,0.875,0v21.57c-0.354,0-0.697,0-1.224,0
		c-0.522-0.181-0.871-0.181-1.222-0.181c-0.175,0-0.522,0-1.046,0.181c-0.522,0-1.048,0-1.222,0v-14.973
		c-1.916,2.09-3.813,4.706-6.25,7.494c-2.269,2.769-4.187,5.385-5.757,7.479c-0.147,0-0.348,0-0.5,0c-0.174,0-0.346,0-0.346,0
		c-0.353,0-0.524,0-0.699,0C404.408,204.626,404.231,204.626,404.059,204.626z"/>
	<path fill="#164BCF" d="M426.476,191.225v-8.169c0.354,0,0.697,0,1.225,0.172c0.524,0,0.87,0,1.222,0c0.176,0,0.521,0,1.045,0
		c0.521-0.172,1.046-0.172,1.22-0.172v8.169c0,0.871,0.522,1.569,1.222,1.914c0.697,0.351,1.543,0.525,2.418,0.525
		c0.872,0,1.565-0.176,2.441-0.525c0.871-0.345,1.742-0.871,2.787-1.566v-8.517c0.177,0,0.521,0,1.047,0.172
		c0.525,0,0.846,0,1.193,0c0.2,0,0.695,0,1.248,0c0.5-0.172,0.846-0.172,1.194-0.172v21.57c-0.352,0-0.694,0-1.194,0
		c-0.553-0.181-0.896-0.181-1.248-0.181c-0.146,0-0.668,0-1.193,0.181c-0.523,0-0.87,0-1.047,0v-10.438
		c-1.396,0.699-2.441,1.219-3.313,1.57c-1.222,0.348-2.438,0.694-3.811,0.694c-1.568,0-3.141-0.522-4.359-1.396
		C427.174,194.013,426.476,192.794,426.476,191.225z"/>
	<path fill="#164BCF" d="M448.745,183.055h11.982c0,0.345,0,0.521,0,0.695c-0.148,0.349-0.148,0.521-0.148,0.699
		c0,0.172,0,0.348,0.148,0.691c0,0.179,0,0.525,0,0.698c-1.021-0.172-2.07-0.347-3.287-0.347c-1.048-0.173-2.438-0.173-4.014-0.173
		v6.775h3.313c0.698,0,1.219,0,1.741,0c0.524,0,1.226-0.177,2.097-0.177c0,0,0,0.177,0,0.522c0,0.352,0,0.522,0,0.695
		c0,0.179,0,0.351,0,0.698c0,0.352,0,0.522,0,0.699c-1.224-0.177-2.44-0.349-3.838-0.349h-3.313v7.997c1.571,0,2.966,0,4.014,0
		c1.217-0.175,2.268-0.352,3.287-0.352c0,0.177,0,0.352,0,0.698c-0.148,0.173-0.148,0.353-0.148,0.523c0,0.176,0,0.348,0.148,0.694
		c0,0.352,0,0.522,0,0.694h-11.982V183.055L448.745,183.055z"/>
	<path fill="#164BCF" d="M480.23,200.788l0.352,0.175l-0.695,2.788c-0.871,0.352-1.919,0.694-2.966,1.046
		c-1.05,0.177-2.095,0.177-3.138,0.177c-3.465,0-6.256-0.871-8.521-2.789c-2.24-1.921-3.284-4.536-3.284-7.648
		c0-4.011,1.191-6.951,3.636-9.043c2.268-2.094,5.231-2.965,8.863-2.965c1.051,0,2.096,0.177,3.314,0.353
		c1.046,0.348,2.096,0.695,3.141,1.219l-0.896,3.136h-0.349c-0.672-0.694-1.371-1.395-2.242-2.093
		c-1.047-0.521-1.918-0.691-2.969-0.691c-2.438,0-4.33,1.043-5.552,2.964c-1.22,1.891-1.742,3.982-1.742,6.601
		c0,2.788,0.697,5.028,1.915,6.599c1.223,1.745,3.116,2.62,5.559,2.62c0.871,0,1.916-0.349,2.964-0.698
		C478.663,202.01,479.532,201.486,480.23,200.788z"/>
	<path fill="#164BCF" d="M483.694,204.626v-21.57c0.347,0,0.698,0,1.222,0.172c0.521,0,1.048,0,1.22,0c0.179,0,0.698,0,1.223,0
		c0.521-0.172,0.871-0.172,1.046-0.172v9.91c2.766-3.139,5.559-6.427,8.17-9.91c0.354,0,0.525,0.172,0.871,0.172
		c0.524,0,0.699,0,0.875,0c0.347,0,0.495,0,0.847,0c0.175,0,0.552-0.172,0.871-0.172v0.345c-1.223,1.051-2.241,2.094-3.464,3.314
		c-0.695,0.699-1.568,1.745-2.791,3.112c-0.87,0.87-1.391,1.569-1.915,2.27l8.692,12.179v0.353l-2.591-0.181l-2.614,0.181
		l-6.951-9.918v9.918c-0.175,0-0.523,0-1.046,0c-0.521-0.181-0.87-0.181-1.222-0.181c-0.173,0-0.697,0-1.221,0.181
		C484.393,204.626,484.04,204.626,483.694,204.626z"/>
	<path fill="#164BCF" d="M501.952,204.626v-21.57c0.352,0,0.697,0,1.222,0.172c0.524,0,0.871,0,1.223,0c0.174,0,0.523,0,1.045,0
		c0.523-0.172,1.048-0.172,1.225-0.172v14.77c1.74-1.895,3.636-4.334,6.076-7.299c2.267-2.939,4.159-5.384,5.729-7.471
		c0.347,0,0.521,0,0.692,0c0.179,0,0.525,0,0.877,0c0.347,0,0.696,0,0.696,0v21.57c-0.178,0-0.523,0-1.048,0
		c-0.525-0.181-1.045-0.181-1.22-0.181c-0.352,0-0.696,0-1.196,0.181c-0.525,0-0.871,0-1.222,0v-14.973
		c-1.743,2.09-3.837,4.706-6.104,7.494c-2.067,2.769-3.983,5.385-5.555,7.479c-0.174,0-0.352,0-0.523,0c-0.171,0-0.348,0-0.522,0
		s-0.346,0-0.697,0C502.477,204.626,502.129,204.626,501.952,204.626z"/>
	<path fill="#164BCF" d="M525.271,204.626v-21.57c0.174,0,0.693,0,1.191,0.172c0.55,0,0.875,0,1.05,0c0.346,0,0.698,0,1.219,0
		c0.522-0.172,0.874-0.172,1.224-0.172v14.77c1.744-1.895,3.834-4.334,6.252-7.299c2.265-2.765,4.185-5.384,5.752-7.471
		c0.351,0,0.523,0,0.699,0c0.174,0,0.521,0,0.87,0c0.352,0,0.523,0,0.675,0v21.57c-0.149,0-0.496,0-1.022,0
		c-0.521-0.181-1.047-0.181-1.222-0.181c-0.348,0-0.694,0-1.222,0.181c-0.521,0-0.87,0-1.219,0v-14.973
		c-1.746,2.09-3.813,4.706-6.078,7.494c-2.267,2.769-4.358,5.385-5.928,7.479c0,0-0.175,0-0.354,0c-0.347,0-0.347,0-0.498,0
		c-0.198,0-0.545,0-0.695,0C525.767,204.626,525.444,204.626,525.271,204.626L525.271,204.626z M527.012,179.39L527.012,179.39
		l1.198-1.716c1.043,1.044,2.092,1.716,3.139,2.241c1.042,0.521,2.265,0.694,3.462,0.694c2.438,0,4.707-1.046,6.622-2.938
		l1.224,1.542c-1.046,1.044-2.268,1.918-3.663,2.613c-1.392,0.525-2.938,0.875-4.334,0.875c-1.396,0-2.791-0.349-4.184-0.875
		C529.254,181.311,528.034,180.436,527.012,179.39z"/>
	<g>
		<path fill="#164BCF" d="M49.116,648.189h3.781v9.338l6.045-9.338h3.864v14.867h-3.779v-9.506l-6.13,9.506h-3.781V648.189z"/>
		<path fill="#164BCF" d="M66.949,648.189h4.873l3.694,10.357l3.725-10.357h4.856v14.867h-3.346v-9.787l-3.625,9.787h-3.36
			l-3.457-9.787v9.787h-3.36V648.189z"/>
		<path fill="#164BCF" d="M96.655,658.323l3.921,0.658c-0.506,1.438-1.301,2.532-2.388,3.281c-1.087,0.753-2.448,1.128-4.081,1.128
			c-2.584,0-4.497-0.844-5.739-2.531c-0.979-1.354-1.47-3.063-1.47-5.125c0-2.465,0.644-4.395,1.933-5.789
			c1.287-1.395,2.917-2.094,4.885-2.094c2.213,0,3.958,0.729,5.234,2.191c1.279,1.461,1.892,3.697,1.835,6.715H90.93
			c0.026,1.164,0.345,2.07,0.951,2.721c0.605,0.646,1.361,0.971,2.27,0.971c0.614,0,1.132-0.168,1.552-0.502
			C96.125,659.613,96.44,659.069,96.655,658.323z M96.88,654.348c-0.028-1.139-0.321-2.006-0.882-2.597
			c-0.562-0.597-1.241-0.89-2.043-0.89c-0.859,0-1.568,0.313-2.131,0.938c-0.559,0.625-0.833,1.473-0.823,2.547L96.88,654.348
			L96.88,654.348z"/>
		<path fill="#164BCF" d="M103.838,648.189h3.934v5.445h5.628v-5.445h3.946v14.867h-3.946v-6.246h-5.628v6.246h-3.934V648.189z"/>
		<path fill="#164BCF" d="M121.208,648.189h3.78v9.338l6.049-9.338h3.862v14.867h-3.778v-9.506l-6.133,9.506h-3.78V648.189z"/>
		<path fill="#164BCF" d="M146.868,663.057v-20.524h6.201l3.725,13.999l3.684-13.999h6.214v20.524h-3.849V646.9l-4.073,16.156h-3.99
			l-4.06-16.156v16.156L146.868,663.057L146.868,663.057z"/>
		<path fill="#164BCF" d="M170.778,663.057v-3.938h3.936v3.938H170.778z"/>
		<path fill="#164BCF" d="M183.391,663.057v-17.051h-6.089v-3.476h16.31v3.476h-6.077v17.051H183.391z"/>
		<path fill="#164BCF" d="M193.023,663.057v-3.938h3.934v3.938H193.023z"/>
		<path fill="#164BCF" d="M209.051,642.531h4.145v8.735c0.923-0.094,1.551-0.33,1.877-0.715c0.326-0.381,0.831-1.445,1.512-3.189
			c0.858-2.223,1.723-3.602,2.589-4.146c0.858-0.539,2.245-0.812,4.159-0.812c0.093,0,0.294-0.003,0.602-0.014v3.063l-0.587-0.014
			c-0.85,0-1.471,0.104-1.862,0.313c-0.395,0.21-0.711,0.528-0.952,0.959c-0.242,0.429-0.603,1.313-1.079,2.646
			c-0.251,0.708-0.523,1.299-0.816,1.777c-0.294,0.473-0.815,0.922-1.563,1.344c0.924,0.26,1.688,0.787,2.289,1.58
			c0.604,0.794,1.266,1.914,1.981,3.362l2.801,5.628h-4.871l-2.451-5.309c-0.037-0.072-0.115-0.22-0.237-0.436
			c-0.048-0.074-0.22-0.396-0.519-0.967c-0.532-1.005-0.969-1.639-1.309-1.891c-0.341-0.25-0.86-0.383-1.563-0.393v8.99h-4.145
			V642.531L209.051,642.531z"/>
		<path fill="#164BCF" d="M229.74,652.723l-3.569-0.646c0.401-1.434,1.093-2.502,2.072-3.188c0.98-0.691,2.438-1.037,4.368-1.037
			c1.754,0,3.063,0.207,3.919,0.625c0.859,0.416,1.461,0.94,1.813,1.58c0.35,0.641,0.522,1.813,0.522,3.521l-0.042,4.593
			c0,1.307,0.064,2.271,0.188,2.893c0.127,0.618,0.36,1.283,0.708,1.996h-3.893c-0.104-0.264-0.229-0.652-0.379-1.165
			c-0.063-0.233-0.11-0.386-0.141-0.46c-0.671,0.652-1.392,1.141-2.155,1.469c-0.767,0.328-1.582,0.49-2.448,0.49
			c-1.531,0-2.737-0.416-3.619-1.246c-0.883-0.83-1.324-1.881-1.324-3.149c0-0.841,0.202-1.591,0.604-2.248
			c0.399-0.657,0.963-1.159,1.688-1.513c0.723-0.348,1.765-0.653,3.129-0.914c1.838-0.346,3.111-0.669,3.82-0.966v-0.392
			c0-0.758-0.188-1.298-0.562-1.617c-0.373-0.324-1.076-0.482-2.114-0.482c-0.698,0-1.245,0.136-1.637,0.412
			C230.301,651.552,229.984,652.034,229.74,652.723z M235.005,655.915c-0.505,0.166-1.304,0.369-2.395,0.604
			c-1.092,0.231-1.806,0.463-2.145,0.686c-0.511,0.364-0.771,0.826-0.771,1.389c0,0.551,0.206,1.024,0.616,1.428
			c0.412,0.402,0.934,0.602,1.567,0.602c0.708,0,1.387-0.23,2.029-0.697c0.478-0.354,0.788-0.79,0.938-1.305
			c0.101-0.334,0.153-0.976,0.153-1.918v-0.785h0.005V655.915z"/>
		<path fill="#164BCF" d="M243.811,648.189h13.171v14.867h-3.918v-11.678h-5.362v6.678c0,1.697-0.195,2.89-0.587,3.578
			c-0.392,0.686-0.825,1.135-1.302,1.351c-0.477,0.212-1.24,0.32-2.297,0.32c-0.625,0-1.452-0.085-2.477-0.249v-2.9
			c0.083,0,0.302,0.01,0.656,0.027c0.412,0.03,0.728,0.043,0.953,0.043c0.53,0,0.857-0.175,0.979-0.525
			c0.122-0.348,0.184-1.318,0.184-2.918V648.189L243.811,648.189z"/>
		<path fill="#164BCF" d="M263.897,652.723l-3.57-0.646c0.401-1.434,1.093-2.502,2.072-3.188c0.98-0.691,2.437-1.037,4.368-1.037
			c1.754,0,3.061,0.207,3.919,0.625c0.856,0.416,1.463,0.94,1.813,1.58c0.353,0.641,0.524,1.813,0.524,3.521l-0.042,4.593
			c0,1.307,0.063,2.271,0.188,2.893c0.126,0.618,0.36,1.283,0.707,1.996h-3.893c-0.104-0.264-0.229-0.652-0.378-1.165
			c-0.064-0.233-0.11-0.386-0.141-0.46c-0.672,0.652-1.392,1.141-2.155,1.469c-0.765,0.328-1.583,0.49-2.449,0.49
			c-1.531,0-2.736-0.416-3.618-1.246c-0.883-0.83-1.323-1.881-1.323-3.149c0-0.841,0.201-1.591,0.602-2.248
			c0.402-0.657,0.964-1.159,1.688-1.513c0.726-0.348,1.767-0.653,3.129-0.914c1.838-0.346,3.113-0.669,3.821-0.966v-0.392
			c0-0.758-0.188-1.298-0.561-1.617c-0.374-0.324-1.077-0.482-2.113-0.482c-0.7,0-1.246,0.136-1.639,0.412
			C264.458,651.552,264.141,652.034,263.897,652.723z M269.162,655.915c-0.504,0.166-1.304,0.369-2.395,0.604
			c-1.093,0.231-1.807,0.463-2.143,0.686c-0.516,0.364-0.771,0.826-0.771,1.389c0,0.551,0.206,1.024,0.618,1.428
			c0.409,0.402,0.932,0.602,1.565,0.602c0.709,0,1.387-0.23,2.03-0.697c0.477-0.354,0.788-0.79,0.938-1.305
			c0.104-0.334,0.154-0.976,0.154-1.918v-0.787H269.162z"/>
		<path fill="#164BCF" d="M276.804,648.189h3.611v11.688h4.563v-11.688h3.625v11.688h4.55v-11.688h3.626v14.867h-19.977
			L276.804,648.189L276.804,648.189z"/>
		<path fill="#164BCF" d="M300.645,648.189h3.934v5.445h5.629v-5.445h3.945v14.867h-3.945v-6.246h-5.629v6.246h-3.934V648.189z"/>
		<path fill="#164BCF" d="M318.016,648.189h3.78v9.338l6.048-9.338h3.862v14.867h-3.778v-9.506l-6.132,9.506h-3.78V648.189z"/>
		<path fill="#164BCF" d="M335.584,648.189h3.921v6.072c0.653-0.074,1.116-0.272,1.387-0.602c0.271-0.326,0.598-1.041,0.979-2.145
			c0.504-1.465,1.054-2.399,1.65-2.813c0.598-0.412,1.38-0.613,2.354-0.613c0.297,0,0.813,0.02,1.554,0.066l0.014,2.605
			c-1.037,0-1.696,0.098-1.987,0.293c-0.289,0.203-0.603,0.815-0.938,1.834c-0.457,1.369-1.115,2.213-1.974,2.531
			c1.24,0.348,2.291,1.424,3.148,3.234c0.046,0.093,0.098,0.189,0.153,0.295l2.196,4.104h-4.229l-1.958-4.298
			c-0.401-0.868-0.751-1.431-1.044-1.676c-0.294-0.245-0.73-0.37-1.31-0.37v6.344h-3.921v-14.865h0.003V648.189z"/>
		<path fill="#164BCF" d="M348.8,655.409c0-1.307,0.322-2.566,0.967-3.795c0.646-1.221,1.556-2.151,2.736-2.797
			c1.182-0.646,2.497-0.967,3.952-0.967c2.253,0,4.094,0.729,5.53,2.191c1.438,1.461,2.156,3.305,2.156,5.533
			c0,2.249-0.728,4.115-2.179,5.596c-1.45,1.479-3.274,2.219-5.479,2.219c-1.36,0-2.662-0.311-3.897-0.926
			c-1.234-0.613-2.176-1.521-2.819-2.707C349.122,658.57,348.8,657.117,348.8,655.409z M352.832,655.622
			c0,1.477,0.351,2.604,1.049,3.388c0.7,0.78,1.563,1.175,2.591,1.175c1.026,0,1.887-0.395,2.582-1.175
			c0.695-0.784,1.044-1.921,1.044-3.417c0-1.454-0.349-2.574-1.044-3.358c-0.695-0.782-1.556-1.175-2.582-1.175
			c-1.025,0-1.891,0.393-2.591,1.175C353.182,653.018,352.832,654.147,352.832,655.622z"/>
		<path fill="#164BCF" d="M367.264,648.189h8.608c1.765,0,3.083,0.32,3.963,0.966c0.876,0.644,1.313,1.613,1.313,2.909
			c0,0.831-0.239,1.557-0.721,2.172c-0.479,0.617-1.087,1.025-1.813,1.23c1.024,0.254,1.793,0.723,2.295,1.415
			c0.505,0.688,0.757,1.442,0.757,2.269c0,1.154-0.425,2.096-1.273,2.818c-0.85,0.722-2.104,1.088-3.765,1.088h-9.366
			L367.264,648.189L367.264,648.189z M371.227,654.36h2.532c1.223,0,2.104-0.151,2.65-0.46c0.547-0.31,0.82-0.793,0.82-1.457
			c0-0.625-0.255-1.07-0.764-1.338c-0.509-0.263-1.411-0.398-2.709-0.398h-2.532L371.227,654.36L371.227,654.36z M371.227,660.534
			h3.106c1.12,0,1.938-0.136,2.449-0.404c0.512-0.271,0.771-0.758,0.771-1.455c0-0.729-0.297-1.232-0.883-1.506
			c-0.59-0.275-1.731-0.41-3.431-0.41h-2.016L371.227,660.534L371.227,660.534z"/>
		<path fill="#164BCF" d="M387.409,652.723l-3.57-0.646c0.399-1.434,1.094-2.502,2.071-3.188c0.979-0.691,2.437-1.037,4.367-1.037
			c1.756,0,3.063,0.207,3.919,0.625c0.859,0.416,1.464,0.94,1.814,1.58c0.35,0.641,0.522,1.813,0.522,3.521l-0.041,4.593
			c0,1.307,0.063,2.271,0.188,2.893c0.125,0.618,0.36,1.283,0.705,1.996h-3.893c-0.103-0.264-0.229-0.652-0.376-1.165
			c-0.066-0.233-0.111-0.386-0.142-0.46c-0.672,0.652-1.392,1.141-2.157,1.469c-0.765,0.328-1.58,0.49-2.448,0.49
			c-1.53,0-2.737-0.416-3.618-1.246c-0.883-0.83-1.323-1.881-1.323-3.149c0-0.841,0.2-1.591,0.604-2.248
			c0.402-0.657,0.964-1.159,1.686-1.513c0.726-0.348,1.769-0.653,3.13-0.914c1.838-0.346,3.112-0.669,3.821-0.966v-0.392
			c0-0.758-0.187-1.298-0.562-1.617c-0.373-0.324-1.076-0.482-2.112-0.482c-0.701,0-1.246,0.136-1.638,0.412
			C387.968,651.552,387.65,652.034,387.409,652.723z M392.672,655.915c-0.505,0.166-1.302,0.369-2.395,0.604
			c-1.093,0.231-1.806,0.463-2.142,0.686c-0.515,0.364-0.771,0.826-0.771,1.389c0,0.551,0.202,1.024,0.614,1.428
			c0.41,0.402,0.933,0.602,1.567,0.602c0.709,0,1.387-0.23,2.029-0.697c0.477-0.354,0.789-0.79,0.938-1.305
			c0.104-0.334,0.153-0.976,0.153-1.918v-0.785h0.004V655.915z"/>
	</g>
</g>
</svg>
