<svg width="23" height="25" viewBox="0 0 23 25" fill="none" xmlns="http://www.w3.org/2000/svg">
<path d="M10 13H12V19.5M0.5 8.5H22.5M16.5 4.5V0.5M6.5 4.5V0.5M2.5 24.5H20.5C21.0304 24.5 21.5391 24.2893 21.9142 23.9142C22.2893 23.5391 22.5 23.0304 22.5 22.5V4.5C22.5 3.96957 22.2893 3.46086 21.9142 3.08579C21.5391 2.71071 21.0304 2.5 20.5 2.5H2.5C1.96957 2.5 1.46086 2.71071 1.08579 3.08579C0.710714 3.46086 0.5 3.96957 0.5 4.5V22.5C0.5 23.0304 0.710714 23.5391 1.08579 23.9142C1.46086 24.2893 1.96957 24.5 2.5 24.5Z" stroke="black" stroke-linecap="round" stroke-linejoin="round"/>
</svg>
