<svg width="52" height="62" viewBox="0 0 52 62" fill="none" xmlns="http://www.w3.org/2000/svg">
<g opacity="0.3">
<path opacity="0.3" d="M36.0793 12.7224C34.6668 12.7203 33.3128 12.1581 32.3142 11.1591C31.3157 10.16 30.7541 8.80571 30.7527 7.39319V4.80018e-07H6.95393C6.04085 -0.000338835 5.13663 0.179216 4.29296 0.528407C3.44929 0.877599 2.68267 1.38957 2.0369 2.03511C1.39114 2.68065 0.878874 3.44708 0.529375 4.29064C0.179876 5.1342 -6.30451e-08 6.03837 0 6.95147V48.8565C-6.30451e-08 49.7696 0.179876 50.6738 0.529375 51.5173C0.878874 52.3609 1.39114 53.1273 2.0369 53.7729C2.68267 54.4184 3.44929 54.9304 4.29296 55.2796C5.13663 55.6288 6.04085 55.8083 6.95393 55.808H35.5239C37.3675 55.808 39.1356 55.0756 40.4392 53.7719C41.7428 52.4683 42.4752 50.7002 42.4752 48.8565V12.7224H36.0793Z" fill="#A140FF"/>
</g>
<path d="M42.4744 12.7224H36.0785C34.666 12.7203 33.312 12.1581 32.3134 11.1591C31.3149 10.16 30.7533 8.80571 30.752 7.39319V0L42.4744 12.7224Z" fill="#A140FF"/>
<path d="M47.519 44.0723H15.2189C12.9277 44.0723 11.0703 45.9297 11.0703 48.2209V57.8512C11.0703 60.1424 12.9277 61.9999 15.2189 61.9999H47.519C49.8102 61.9999 51.6676 60.1424 51.6676 57.8512V48.2209C51.6676 45.9297 49.8102 44.0723 47.519 44.0723Z" fill="#A140FF"/>
<path d="M21.158 55.1211V56.9991H19.2129V55.1211H21.158Z" fill="white"/>
<path d="M26.1252 56.9986L24.4435 54.064H24.0147V56.9986H22.1367V49.2308H25.345C25.8792 49.2162 26.4096 49.3249 26.8949 49.5486C27.2933 49.738 27.6261 50.042 27.8507 50.4217C28.067 50.8098 28.1766 51.2483 28.1684 51.6926C28.1836 52.2119 28.0183 52.7203 27.7009 53.1315C27.355 53.5491 26.8763 53.8354 26.3447 53.9426L28.1917 56.9986H26.1252ZM24.0147 52.7801H25.1797C25.4773 52.8025 25.7722 52.7101 26.0038 52.5218C26.0955 52.4248 26.1659 52.3096 26.2104 52.1837C26.2549 52.0578 26.2725 51.9239 26.2621 51.7908C26.2707 51.6586 26.2522 51.526 26.2077 51.4012C26.1633 51.2764 26.0939 51.162 26.0038 51.0649C25.7754 50.8745 25.4812 50.7817 25.1849 50.8066H24.0199L24.0147 52.7801Z" fill="white"/>
<path d="M33.9375 55.5805H31.0262L30.5406 56.9987H28.5645L31.4059 49.2852H33.5681L36.4096 56.9987H34.4102L33.9375 55.5805ZM33.4544 54.1519L32.4857 51.2949L31.5093 54.1519H33.4544Z" fill="white"/>
<path d="M41.133 56.9986L39.4513 54.064H39.0225V56.9986H37.1445V49.2308H40.3529C40.887 49.2162 41.4174 49.3249 41.9028 49.5486C42.3011 49.738 42.6339 50.042 42.8586 50.4217C43.0748 50.8098 43.1845 51.2483 43.1763 51.6926C43.1914 52.2119 43.0262 52.7203 42.7087 53.1315C42.3628 53.5491 41.8841 53.8354 41.3525 53.9426L43.1995 56.9986H41.133ZM39.0225 52.7801H40.1875C40.4851 52.802 40.7798 52.7096 41.0116 52.5218C41.1033 52.4248 41.1737 52.3096 41.2182 52.1837C41.2627 52.0578 41.2803 51.9239 41.2699 51.7908C41.2785 51.6586 41.26 51.526 41.2156 51.4012C41.1711 51.2764 41.1017 51.162 41.0116 51.0649C40.7832 50.8745 40.489 50.7817 40.1927 50.8066H39.0277L39.0225 52.7801Z" fill="white"/>
<path d="M24.5322 38.9651H8.38212C8.12566 38.9644 7.87994 38.8621 7.69883 38.6805C7.51773 38.4989 7.41601 38.2529 7.41602 37.9964C7.41602 37.7402 7.51781 37.4944 7.69899 37.3133C7.88017 37.1321 8.12589 37.0303 8.38212 37.0303H24.5322C24.6593 37.0299 24.7852 37.0547 24.9027 37.1031C25.0202 37.1515 25.127 37.2226 25.217 37.3123C25.3069 37.4021 25.3784 37.5087 25.4271 37.6261C25.4758 37.7435 25.5009 37.8693 25.5009 37.9964C25.5009 38.2533 25.3988 38.4997 25.2171 38.6814C25.0355 38.8631 24.7891 38.9651 24.5322 38.9651Z" fill="#A140FF"/>
<path d="M24.5322 33.2591H8.38212C8.12566 33.2584 7.87994 33.156 7.69883 32.9744C7.51773 32.7928 7.41601 32.5468 7.41602 32.2903C7.4167 32.0343 7.51872 31.789 7.69975 31.6079C7.88078 31.4269 8.1261 31.3249 8.38212 31.3242H24.5322C24.7886 31.3242 25.0346 31.4259 25.2162 31.607C25.3978 31.7882 25.5002 32.0339 25.5009 32.2903C25.5009 32.5473 25.3988 32.7936 25.2171 32.9753C25.0355 33.157 24.7891 33.2591 24.5322 33.2591Z" fill="#A140FF"/>
<path d="M24.5322 27.552H8.38212C8.12589 27.552 7.88017 27.4502 7.69899 27.269C7.51781 27.0879 7.41602 26.8421 7.41602 26.5859C7.41601 26.3294 7.51773 26.0834 7.69883 25.9018C7.87994 25.7202 8.12566 25.6179 8.38212 25.6172H24.5322C24.7891 25.6172 25.0355 25.7192 25.2171 25.9009C25.3988 26.0826 25.5009 26.329 25.5009 26.5859C25.5009 26.713 25.4758 26.8388 25.4271 26.9562C25.3784 27.0736 25.3069 27.1802 25.217 27.27C25.127 27.3597 25.0202 27.4308 24.9027 27.4792C24.7852 27.5276 24.6593 27.5524 24.5322 27.552Z" fill="#A140FF"/>
<path d="M24.5322 21.8463H8.38212C8.12589 21.8463 7.88017 21.7445 7.69899 21.5634C7.51781 21.3822 7.41602 21.1364 7.41602 20.8802C7.41602 20.624 7.51781 20.3782 7.69899 20.197C7.88017 20.0159 8.12589 19.9141 8.38212 19.9141H24.5322C24.6593 19.9137 24.7852 19.9385 24.9027 19.9869C25.0202 20.0353 25.127 20.1064 25.217 20.1961C25.3069 20.2859 25.3784 20.3925 25.4271 20.5099C25.4758 20.6273 25.5009 20.7531 25.5009 20.8802C25.5009 21.0073 25.4758 21.1331 25.4271 21.2505C25.3784 21.3679 25.3069 21.4745 25.217 21.5643C25.127 21.654 25.0202 21.7251 24.9027 21.7735C24.7852 21.8219 24.6593 21.8467 24.5322 21.8463Z" fill="#A140FF"/>
<path d="M31.7742 39.399C30.905 39.3983 30.0716 39.0527 29.457 38.4381C28.8424 37.8235 28.4968 36.9901 28.4961 36.1209V32.8428H35.0496V36.1209C35.0489 36.9896 34.7037 37.8227 34.0897 38.4372C33.4756 39.0517 32.6429 39.3976 31.7742 39.399ZM30.1726 34.5193V36.1209C30.1733 36.5454 30.3422 36.9524 30.6424 37.2526C30.9426 37.5529 31.3496 37.7218 31.7742 37.7225C32.1987 37.7218 32.6057 37.5529 32.9059 37.2526C33.2061 36.9524 33.375 36.5454 33.3757 36.1209V34.5193H30.1726Z" fill="#A140FF"/>
<path d="M28.4974 32.8457H31.7832V29.5598H28.4974V32.8457Z" fill="#A140FF"/>
<path d="M31.7728 29.5625H35.0586V26.2766H31.7728V29.5625Z" fill="#A140FF"/>
<path d="M28.4974 26.2793H31.7832V22.9934H28.4974V26.2793Z" fill="#A140FF"/>
<path d="M31.7728 22.9961H35.0586V19.7102H31.7728V22.9961Z" fill="#A140FF"/>
</svg>
