<svg width="20" height="20" viewBox="0 0 20 20" fill="none" xmlns="http://www.w3.org/2000/svg">
<path fill-rule="evenodd" clip-rule="evenodd" d="M15.7381 10.4453L10.775 15.4084C10.4562 15.7271 10.2495 16.1407 10.1857 16.5869L10.0042 17.8576C9.98565 17.9875 10.0293 18.1185 10.122 18.2112C10.2148 18.3039 10.3458 18.3476 10.4756 18.3291L11.7463 18.1475C12.1926 18.0838 12.6061 17.877 12.9249 17.5583L17.888 12.5951C18.4817 12.0015 18.4817 11.0389 17.888 10.4453V10.4453C17.6029 10.1602 17.2162 10 16.8131 10C16.4099 10 16.0232 10.1602 15.7381 10.4453Z" stroke="#410C23" stroke-width="1.5" stroke-linecap="round" stroke-linejoin="round"/>
<path d="M7.5 8.33366H12.5" stroke="#410C23" stroke-width="1.5" stroke-linecap="round" stroke-linejoin="round"/>
<path d="M7.5 11.6667H9.16667" stroke="#410C23" stroke-width="1.5" stroke-linecap="round" stroke-linejoin="round"/>
<path d="M7.50065 17.5H5.00065C4.55874 17.5001 4.13489 17.3247 3.82233 17.0123C3.50977 16.6999 3.3341 16.2762 3.33398 15.8343V4.16667C3.33386 3.72476 3.50929 3.3009 3.82168 2.98834C4.13407 2.67578 4.55783 2.50012 4.99973 2.5H15.0007C15.4426 2.49988 15.8664 2.67531 16.179 2.98769C16.4915 3.30008 16.6672 3.72384 16.6673 4.16575V7.5" stroke="#410C23" stroke-width="1.5" stroke-linecap="round" stroke-linejoin="round"/>
<path d="M2.5 6.66667H4.44167" stroke="#410C23" stroke-width="1.5" stroke-linecap="round" stroke-linejoin="round"/>
<path d="M2.5 9.99967H4.44167" stroke="#410C23" stroke-width="1.5" stroke-linecap="round" stroke-linejoin="round"/>
<path d="M2.40039 13.3337H4.44206" stroke="#410C23" stroke-width="1.5" stroke-linecap="round" stroke-linejoin="round"/>
</svg>
