<svg width="62" height="75" viewBox="0 0 62 75" fill="none" xmlns="http://www.w3.org/2000/svg">
<g opacity="0.3">
<path opacity="0.3" d="M43.2969 15.2675C41.6019 15.265 39.977 14.5903 38.7787 13.3914C37.5803 12.1925 36.9065 10.5673 36.9048 8.87219V0H8.34194C6.12952 0 4.00773 0.878883 2.44331 2.44333C0.878887 4.00778 0 6.12964 0 8.3421V58.6303C0.00328543 60.8406 0.883614 62.9592 2.44768 64.521C4.01174 66.0828 6.13167 66.9599 8.34194 66.9599H42.6304C44.8407 66.9599 46.9606 66.0828 48.5247 64.521C50.0888 62.9592 50.9691 60.8406 50.9724 58.6303V15.2675H43.2969Z" fill="#FF3E4C"/>
</g>
<path d="M50.9718 15.2675H43.2964C41.6013 15.265 39.9764 14.5904 38.7781 13.3914C37.5798 12.1925 36.9059 10.5673 36.9043 8.87219V0L50.9718 15.2675Z" fill="#FF3E4C"/>
<path d="M57.0215 52.8887H18.2598C15.5102 52.8887 13.2812 55.1177 13.2812 57.8673V69.4241C13.2812 72.1737 15.5102 74.4027 18.2598 74.4027H57.0215C59.771 74.4027 62 72.1737 62 69.4241V57.8673C62 55.1177 59.771 52.8887 57.0215 52.8887Z" fill="#FF3E4C"/>
<path d="M28.6272 66.1475V68.4012H26.293V66.1475H28.6272Z" fill="white"/>
<path d="M32.1336 66.5811H36.2473V68.4008H29.6289V66.6865L33.6774 60.8864H29.6816V59.0791H36.2225V60.7934L32.1336 66.5811Z" fill="white"/>
<path d="M39.8869 59.0791V68.4008H37.6426V59.0791H39.8869Z" fill="white"/>
<path d="M43.6951 65.1303V68.4008H41.4414V59.0791H45.0807C46.1874 59.0791 47.0337 59.3519 47.6134 59.9037C47.9069 60.1913 48.1362 60.5378 48.2864 60.9203C48.4365 61.3029 48.504 61.7128 48.4845 62.1233C48.4942 62.6655 48.3594 63.2005 48.0939 63.6733C47.8232 64.1357 47.4221 64.5077 46.9407 64.7428C46.3597 65.016 45.7225 65.1487 45.0807 65.1303H43.6951ZM46.1998 62.1233C46.1998 61.307 45.7472 60.8937 44.842 60.8833H43.6951V63.3075H44.842C45.7472 63.3178 46.1998 62.9231 46.1998 62.1233Z" fill="white"/>
<path d="M25.4835 47.2809C24.4409 47.2792 23.4416 46.8642 22.7047 46.1267C21.9678 45.3892 21.5536 44.3895 21.5527 43.347V39.4131H29.4173V43.347C29.4165 44.39 29.0017 45.3902 28.2642 46.1278C27.5266 46.8653 26.5265 47.2801 25.4835 47.2809ZM23.5646 41.425V43.347C23.5646 43.8562 23.7667 44.3446 24.1264 44.705C24.4862 45.0653 24.9743 45.2682 25.4835 45.269C25.9929 45.2682 26.4813 45.0654 26.8416 44.7051C27.2018 44.3449 27.4046 43.8565 27.4054 43.347V41.425H23.5646Z" fill="#FF3E4C"/>
<path d="M21.5471 39.417H25.4902V35.4738H21.5471V39.417Z" fill="#FF3E4C"/>
<path d="M25.4807 35.4766H29.4238V31.5334H25.4807V35.4766Z" fill="#FF3E4C"/>
<path d="M21.5471 31.5361H25.4902V27.5929H21.5471V31.5361Z" fill="#FF3E4C"/>
<path d="M25.4807 27.5957H29.4238V23.6525H25.4807V27.5957Z" fill="#FF3E4C"/>
</svg>
